<svg width="234" height="200" viewBox="0 0 234 200" fill="none" xmlns="http://www.w3.org/2000/svg">
<g clip-path="url(#clip0_139_8012)">
<path fill-rule="evenodd" clip-rule="evenodd" d="M119.831 0H66.1976C48.9153 2.37455 54.8537 35.3311 65.0057 35.0246C84.6713 34.431 89.4386 35.0246 100.165 42.7419C109.384 49.3746 113.709 58.1765 114.467 66.4874C115.28 75.3919 116.017 89.5205 103.145 100.918C87.0548 115.166 69.1772 111.01 60.8343 108.042C54.1599 105.667 54.875 108.24 56.0669 109.823C63.8139 115.759 82.2875 116.947 93.0141 112.197C101.595 108.398 102.946 110.614 102.549 112.197C124.906 109.413 128.226 94.3139 127.07 86.6086C124.803 86.2422 123.072 84.283 123.072 81.921C123.072 79.2981 125.207 77.1719 127.84 77.1719C130.473 77.1719 132.607 79.2981 132.607 81.921C132.607 83.7097 131.614 85.2675 130.148 86.0774H130.557V88.452C130.557 111.248 111.488 116.947 101.953 116.947V125.257H66.1976C59.6424 125.257 56.0669 126.445 56.0669 135.349C56.0669 142.473 60.0397 144.254 62.0261 144.254H113.275C165.717 149.003 183.594 118.727 175.847 95.5756C169.65 77.0541 153.798 71.2365 146.647 70.6428C171.676 59.9574 173.464 36.8055 163.929 18.4028C156.301 3.68055 131.352 0 119.831 0ZM131.358 45.9605C131.943 46.9986 131.526 48.3018 130.466 48.8505C129.405 49.3992 128.102 48.9855 127.515 47.9487C122.787 39.6009 116.185 32.4546 108.226 27.0691C107.237 26.4002 106.931 25.0725 107.568 24.0651C108.205 23.0578 109.543 22.7525 110.533 23.4192C119.141 29.2155 126.272 36.9346 131.358 45.9605ZM120.941 49.6871C121.585 50.6895 121.246 52.0147 120.219 52.6241C119.193 53.2335 117.868 52.8962 117.221 51.8953C113.072 45.476 107.771 39.8727 101.584 35.3662C100.619 34.6636 100.359 33.326 101.031 32.3413C101.702 31.3565 103.05 31.0977 104.017 31.7982C110.725 36.6614 116.465 42.7282 120.941 49.6871Z" fill="#FFBB15"/>
<ellipse cx="76.2288" cy="73.6111" rx="11.3225" ry="11.2791" fill="#FFBB15"/>
<path d="M0 176.264H12.6479C15.3398 176.264 17.4534 176.796 18.9885 177.859C20.5236 178.923 21.2911 180.364 21.2911 182.181C21.2911 183.511 20.8684 184.641 20.023 185.572C19.1998 186.481 18.0763 187.101 16.6525 187.434C18.3433 187.788 19.7004 188.453 20.7238 189.428C21.7472 190.381 22.2589 191.633 22.2589 193.185C22.2589 195.113 21.458 196.653 19.8561 197.806C18.2765 198.958 16.1408 199.534 13.4488 199.534H0V176.264ZM6.50747 189.561V195.08H12.1807C13.2041 195.08 14.0161 194.836 14.6168 194.348C15.2397 193.861 15.5512 193.185 15.5512 192.32C15.5512 191.456 15.2397 190.78 14.6168 190.293C14.0161 189.805 13.2041 189.561 12.1807 189.561H6.50747ZM11.58 185.904C12.5144 185.904 13.2708 185.672 13.8492 185.206C14.4499 184.741 14.7503 184.098 14.7503 183.278C14.7503 182.436 14.4499 181.793 13.8492 181.35C13.2485 180.885 12.4699 180.652 11.5132 180.652H6.50747V185.904H11.58Z" fill="black"/>
<path d="M25.8234 176.264H32.3643V190.126C32.3643 191.633 32.7536 192.83 33.5323 193.717C34.3109 194.603 35.4233 195.046 36.8694 195.046C38.3155 195.046 39.4279 194.603 40.2066 193.717C40.9853 192.83 41.3746 191.633 41.3746 190.126V176.264H47.9488V190.425C47.9488 193.506 46.9588 195.877 44.9787 197.54C42.9987 199.18 40.2956 200 36.8694 200C33.3988 200 30.6845 199.169 28.7267 197.506C26.7912 195.844 25.8234 193.484 25.8234 190.425V176.264Z" fill="black"/>
<path d="M51.6971 199.534V195.911L62.9767 181.35H52.0308V176.264H72.2207V179.987L61.0412 194.448H73.1217V199.534H51.6971Z" fill="black"/>
<path d="M76.1549 199.534V195.911L87.4345 181.35H76.4886V176.264H96.6785V179.987L85.499 194.448H97.5795V199.534H76.1549Z" fill="black"/>
<path d="M120.936 176.264V181.317H108.021V185.672H118.9V189.628H108.021V194.448H121.603V199.534H101.514V176.264H120.936Z" fill="black"/>
<path d="M125.548 199.534V176.264H137.662C140.732 176.264 143.124 176.951 144.837 178.325C146.55 179.699 147.406 181.594 147.406 184.009C147.406 185.694 146.984 187.134 146.138 188.331C145.315 189.506 144.169 190.392 142.701 190.991L147.773 199.534H140.398L136.26 192.187H132.122V199.534H125.548ZM136.794 187.799C137.973 187.799 138.93 187.522 139.664 186.968C140.42 186.392 140.799 185.572 140.799 184.508C140.799 183.422 140.443 182.602 139.731 182.048C139.019 181.494 138.062 181.217 136.861 181.217H132.122V187.799H136.794Z" fill="black"/>
<path d="M160.071 199.534L170.049 176.264H174.32L184.265 199.534H180.661L178.392 194.182H165.977L163.708 199.534H160.071ZM177.457 191.855L172.151 179.788L166.878 191.855H177.457Z" fill="black"/>
<path d="M188.278 199.534V176.264H199.791C202.417 176.264 204.519 176.962 206.099 178.358C207.701 179.732 208.501 181.56 208.501 183.843C208.501 186.126 207.701 187.977 206.099 189.395C204.519 190.791 202.417 191.489 199.791 191.489H191.816V199.534H188.278ZM191.816 188.83H199.424C201.093 188.83 202.428 188.375 203.429 187.467C204.452 186.536 204.964 185.35 204.964 183.91C204.964 182.447 204.463 181.272 203.462 180.386C202.461 179.477 201.126 179.023 199.458 179.023H191.816V188.83Z" fill="black"/>
<path d="M213.11 199.534V176.264H224.623C227.249 176.264 229.351 176.962 230.931 178.358C232.532 179.732 233.333 181.56 233.333 183.843C233.333 186.126 232.532 187.977 230.931 189.395C229.351 190.791 227.249 191.489 224.623 191.489H216.647V199.534H213.11ZM216.647 188.83H224.256C225.925 188.83 227.26 188.375 228.261 187.467C229.284 186.536 229.796 185.35 229.796 183.91C229.796 182.447 229.295 181.272 228.294 180.386C227.293 179.477 225.958 179.023 224.29 179.023H216.647V188.83Z" fill="black"/>
</g>
<defs>
<clipPath id="clip0_139_8012">
<rect width="233.333" height="200" fill="white"/>
</clipPath>
</defs>
</svg>
