<svg width="735" height="322" viewBox="0 0 735 322" fill="none" xmlns="http://www.w3.org/2000/svg">
<rect x="8" y="79.2607" width="589.646" height="56" fill="white" fill-opacity="0.2"/>
<rect x="8" y="239.999" width="584.738" height="56" fill="white" fill-opacity="0.2"/>
<path d="M592.738 267.945C652.589 267.945 706.064 247.481 706.064 187.631C706.064 127.78 657.499 107.196 597.648 107.196" stroke="white" stroke-opacity="0.2" stroke-width="56"/>
<path d="M8.125 136V23.9688H91.4844V45.4531H34.375V68.8125H86.5625V90.2188H34.375V136H8.125ZM117.812 121.781C106.797 111.078 101.328 97.1719 101.328 79.9844C101.328 62.7969 106.797 48.8906 117.812 38.1875C128.828 27.5625 143.125 22.25 160.859 22.25C178.594 22.25 192.969 27.6406 203.984 38.3438C215 49.0469 220.547 62.9531 220.547 79.9844C220.547 97.0938 215 111 203.984 121.703C192.969 132.406 178.594 137.797 160.859 137.797C143.125 137.797 128.828 132.484 117.812 121.781ZM138.516 54.75C132.5 61.4688 129.531 69.9062 129.531 79.9844C129.531 90.1406 132.5 98.5781 138.516 105.297C144.453 112.016 151.875 115.375 160.859 115.375C170.156 115.375 177.734 112.016 183.594 105.375C189.453 98.7344 192.422 90.2188 192.422 79.9844C192.422 69.75 189.453 61.3125 183.594 54.6719C177.734 48.0312 170.156 44.6719 160.859 44.6719C151.875 44.6719 144.453 48.0312 138.516 54.75ZM245.938 121.781C234.922 111.078 229.453 97.1719 229.453 79.9844C229.453 62.7969 234.922 48.8906 245.938 38.1875C256.953 27.5625 271.25 22.25 288.984 22.25C306.719 22.25 321.094 27.6406 332.109 38.3438C343.125 49.0469 348.672 62.9531 348.672 79.9844C348.672 97.0938 343.125 111 332.109 121.703C321.094 132.406 306.719 137.797 288.984 137.797C271.25 137.797 256.953 132.484 245.938 121.781ZM266.641 54.75C260.625 61.4688 257.656 69.9062 257.656 79.9844C257.656 90.1406 260.625 98.5781 266.641 105.297C272.578 112.016 280 115.375 288.984 115.375C298.281 115.375 305.859 112.016 311.719 105.375C317.578 98.7344 320.547 90.2188 320.547 79.9844C320.547 69.75 317.578 61.3125 311.719 54.6719C305.859 48.0312 298.281 44.6719 288.984 44.6719C280 44.6719 272.578 48.0312 266.641 54.75ZM409.297 136H361.25V23.9688H409.297C426.719 23.9688 440.938 29.2031 451.953 39.5938C462.969 49.9844 468.516 63.5 468.516 79.9844C468.516 96.5469 462.969 109.984 451.953 120.375C440.938 130.766 426.719 136 409.297 136ZM432.5 105.141C438.438 98.8125 441.406 90.4531 441.406 79.9844C441.406 69.5156 438.438 61.1562 432.5 54.8281C426.484 48.5781 418.75 45.4531 409.297 45.4531H387.5V114.594H409.297C418.75 114.594 426.484 111.469 432.5 105.141Z" fill="white"/>
<path d="M506.631 113.249L509.195 115.898C506.854 118.308 503.812 119.504 500.052 119.504C496.309 119.504 493.284 118.342 490.977 116.018C488.653 113.71 487.491 110.686 487.491 106.977C487.491 103.234 488.653 100.209 490.977 97.8682C493.284 95.5439 496.309 94.3818 500.018 94.3818C503.692 94.3818 506.751 95.5781 509.195 97.9878L506.631 100.62C505.999 99.8677 505.11 99.2524 503.965 98.7739C502.803 98.2954 501.59 98.0562 500.342 98.0562C497.916 98.0562 495.933 98.8765 494.412 100.534C492.874 102.192 492.105 104.328 492.105 106.943C492.105 109.523 492.874 111.643 494.412 113.3C495.933 114.958 497.916 115.795 500.342 115.795C501.607 115.795 502.82 115.556 503.965 115.095C505.11 114.633 505.999 114.018 506.631 113.249ZM515.125 119.196H510.545L521.397 94.6895H525.84L536.692 119.196H532.095L529.754 113.813H517.466L515.125 119.196ZM528.216 110.207L523.636 99.6626L519.056 110.207H528.216ZM543.836 119.196H539.632V94.6895H543.802L557.422 112.258V94.6895H561.609V119.196H557.457L543.836 101.457V119.196Z" fill="white" fill-opacity="0.5"/>
<path d="M503.723 274.053L506.286 276.702C503.945 279.111 500.903 280.308 497.143 280.308C493.4 280.308 490.375 279.146 488.068 276.821C485.744 274.514 484.582 271.489 484.582 267.781C484.582 264.038 485.744 261.013 488.068 258.672C490.375 256.348 493.4 255.186 497.109 255.186C500.783 255.186 503.842 256.382 506.286 258.792L503.723 261.423C503.09 260.671 502.202 260.056 501.057 259.578C499.895 259.099 498.681 258.86 497.434 258.86C495.007 258.86 493.024 259.68 491.503 261.338C489.965 262.996 489.196 265.132 489.196 267.747C489.196 270.327 489.965 272.446 491.503 274.104C493.024 275.762 495.007 276.599 497.434 276.599C498.698 276.599 499.912 276.36 501.057 275.898C502.202 275.437 503.09 274.822 503.723 274.053ZM513.959 280H509.619V255.493H513.959V265.798H527.512V255.493H531.853V280H527.512V269.353H513.959V280ZM539.355 280H534.775L545.627 255.493H550.07L560.922 280H556.325L553.984 274.617H541.696L539.355 280ZM552.446 271.011L547.866 260.466L543.286 271.011H552.446ZM568.066 280H563.862V255.493H568.032L581.652 273.062V255.493H585.839V280H581.687L568.066 262.261V280ZM607.458 269.712H601.545V266.14H611.799V276.787C609.423 279.163 606.313 280.359 602.468 280.359C598.623 280.342 595.495 279.18 593.12 276.838C590.744 274.514 589.548 271.489 589.548 267.781C589.548 264.038 590.744 261.013 593.137 258.672C595.529 256.348 598.623 255.186 602.399 255.186C606.21 255.186 609.338 256.382 611.799 258.792L609.287 261.458C608.586 260.688 607.629 260.056 606.416 259.595C605.185 259.133 603.92 258.894 602.604 258.894C600.126 258.894 598.11 259.714 596.538 261.372C594.948 263.03 594.162 265.166 594.162 267.781C594.162 270.361 594.965 272.48 596.555 274.121C598.144 275.779 600.195 276.599 602.707 276.599C604.536 276.599 606.108 276.138 607.458 275.232V269.712ZM615.883 280V255.493H633.776V259.065H620.224V265.747H632.683V269.319H620.224V276.428H634.084V280H615.883Z" fill="white" fill-opacity="0.5"/>
<path d="M705.326 184.213H707.826V184.181L707.826 184.149L705.326 184.213ZM667.177 257.146L695.28 250.546L675.512 229.508L667.177 257.146ZM593.401 110.398C611.435 108.374 638.544 109.722 661.249 120.198C672.569 125.421 682.724 132.879 690.159 143.252C697.582 153.608 702.39 167.003 702.827 184.276L707.826 184.149C707.365 165.966 702.281 151.581 694.223 140.34C686.179 129.116 675.268 121.16 663.343 115.658C639.558 104.684 611.462 103.34 592.843 105.429L593.401 110.398ZM702.826 184.213C702.826 197.206 698.211 220.263 681.654 240.138L685.495 243.338C702.939 222.399 707.826 198.14 707.826 184.213H702.826Z" fill="white"/>
<path d="M7.36328 293V191.472H38.5864L65.8447 252.077L92.9614 191.472H124.114V293H101.245V224.677L74.27 284.858H57.561L30.3027 224.677V293H7.36328ZM150.522 280.114C140.54 270.415 135.583 257.812 135.583 242.236C135.583 226.66 140.54 214.057 150.522 204.357C160.505 194.729 173.462 189.914 189.534 189.914C205.605 189.914 218.633 194.799 228.616 204.499C238.599 214.199 243.625 226.801 243.625 242.236C243.625 257.741 238.599 270.344 228.616 280.043C218.633 289.743 205.605 294.628 189.534 294.628C173.462 294.628 160.505 289.814 150.522 280.114ZM169.285 219.367C163.833 225.456 161.143 233.103 161.143 242.236C161.143 251.44 163.833 259.086 169.285 265.175C174.666 271.264 181.392 274.309 189.534 274.309C197.959 274.309 204.827 271.264 210.137 265.246C215.447 259.228 218.137 251.511 218.137 242.236C218.137 232.961 215.447 225.314 210.137 219.296C204.827 213.278 197.959 210.234 189.534 210.234C181.392 210.234 174.666 213.278 169.285 219.367ZM266.636 280.114C256.653 270.415 251.697 257.812 251.697 242.236C251.697 226.66 256.653 214.057 266.636 204.357C276.619 194.729 289.575 189.914 305.647 189.914C321.719 189.914 334.746 194.799 344.729 204.499C354.712 214.199 359.739 226.801 359.739 242.236C359.739 257.741 354.712 270.344 344.729 280.043C334.746 289.743 321.719 294.628 305.647 294.628C289.575 294.628 276.619 289.814 266.636 280.114ZM285.398 219.367C279.946 225.456 277.256 233.103 277.256 242.236C277.256 251.44 279.946 259.086 285.398 265.175C290.779 271.264 297.505 274.309 305.647 274.309C314.072 274.309 320.94 271.264 326.25 265.246C331.56 259.228 334.25 251.511 334.25 242.236C334.25 232.961 331.56 225.314 326.25 219.296C320.94 213.278 314.072 210.234 305.647 210.234C297.505 210.234 290.779 213.278 285.398 219.367ZM414.68 293H371.138V191.472H414.68C430.469 191.472 443.354 196.215 453.337 205.632C463.32 215.048 468.347 227.297 468.347 242.236C468.347 257.246 463.32 269.423 453.337 278.84C443.354 288.256 430.469 293 414.68 293ZM435.708 265.034C441.089 259.299 443.779 251.723 443.779 242.236C443.779 232.749 441.089 225.173 435.708 219.438C430.256 213.774 423.247 210.942 414.68 210.942H394.927V273.601H414.68C423.247 273.601 430.256 270.769 435.708 265.034Z" fill="white"/>
</svg>
