<svg width="123" height="145" viewBox="0 0 123 145" fill="none" xmlns="http://www.w3.org/2000/svg">
<path fill-rule="evenodd" clip-rule="evenodd" d="M64.8306 0.25H11.1976C-6.08468 2.62455 -0.146268 35.5811 10.0057 35.2746C29.6713 34.681 34.4386 35.2746 45.1651 42.9919C54.384 49.6246 58.709 58.4265 59.4672 66.7374C60.2796 75.6419 61.0166 89.7705 48.1447 101.168C32.0548 115.416 14.1772 111.26 5.83426 108.292C-0.84007 105.917 -0.124964 108.49 1.06688 110.073C8.81387 116.009 27.2875 117.197 38.0141 112.447C46.5954 108.648 47.9461 110.864 47.5488 112.447C69.9064 109.663 73.2265 94.5639 72.0705 86.8586C69.8032 86.4922 68.0723 84.533 68.0723 82.171C68.0723 79.5481 70.2067 77.4219 72.8396 77.4219C75.4726 77.4219 77.607 79.5481 77.607 82.171C77.607 83.9597 76.6143 85.5175 75.1477 86.3274H75.5572V88.702C75.5572 111.498 56.4877 117.197 46.9529 117.197V125.507H11.1976C4.64242 125.507 1.06688 126.695 1.06688 135.599C1.06688 142.723 5.0397 144.504 7.02611 144.504H58.2754C110.717 149.253 128.594 118.977 120.847 95.8256C114.65 77.3041 98.7982 71.4865 91.6471 70.8928C116.676 60.2074 118.464 37.0555 108.929 18.6528C101.301 3.93055 76.3518 0.25 64.8306 0.25ZM76.3578 46.2105C76.9427 47.2486 76.5264 48.5518 75.4659 49.1005C74.4054 49.6492 73.1025 49.2355 72.5152 48.1987C67.7871 39.8509 61.185 32.7046 53.2258 27.3191C52.2372 26.6502 51.9313 25.3225 52.5681 24.3151C53.2049 23.3078 54.5431 23.0025 55.5332 23.6692C64.1413 29.4655 71.2725 37.1846 76.3578 46.2105ZM65.9406 49.9371C66.5853 50.9395 66.2461 52.2647 65.2195 52.8741C64.1929 53.4835 62.868 53.1462 62.221 52.1453C58.0716 45.726 52.7705 40.1227 46.5835 35.6162C45.6189 34.9136 45.3593 33.576 46.0308 32.5913C46.7023 31.6065 48.0504 31.3477 49.0166 32.0482C55.725 36.9114 61.4645 42.9782 65.9406 49.9371Z" fill="#FFBB15"/>
<ellipse cx="21.2288" cy="73.8611" rx="11.3225" ry="11.2791" fill="#FFBB15"/>
</svg>
