<svg width="960" height="1080" viewBox="0 0 960 1080" fill="none" xmlns="http://www.w3.org/2000/svg">
<rect width="960" height="1080" fill="white"/>
<path d="M922.536 978.304C922.536 978.609 722.712 978.833 476.288 978.833C229.864 978.833 30 978.609 30 978.304C30 977.999 229.783 977.775 476.288 977.775C722.793 977.775 922.536 978.019 922.536 978.304Z" fill="#263238"/>
<path d="M584.844 561.958H426.718L396.513 606.706L367.04 561.958H211.721C209.359 561.958 207.021 561.492 204.84 560.589C202.658 559.685 200.676 558.361 199.006 556.691C197.337 555.021 196.012 553.039 195.108 550.858C194.205 548.676 193.74 546.338 193.74 543.977V236.003C193.737 233.64 194.2 231.3 195.103 229.116C196.005 226.932 197.329 224.947 198.999 223.276C200.669 221.604 202.652 220.278 204.835 219.373C207.018 218.468 209.358 218.002 211.721 218.002H584.844C587.207 218.002 589.547 218.468 591.73 219.373C593.913 220.278 595.896 221.604 597.566 223.276C599.236 224.947 600.56 226.932 601.462 229.116C602.365 231.3 602.828 233.64 602.825 236.003V544.058C602.804 548.813 600.9 553.365 597.53 556.72C594.16 560.074 589.599 561.958 584.844 561.958Z" fill="#FAFAFA"/>
<path d="M584.844 561.956H585.821C586.8 561.893 587.773 561.75 588.729 561.529C591.991 560.793 594.98 559.156 597.357 556.804C599.734 554.452 601.403 551.48 602.174 548.227C602.361 547.456 602.504 546.675 602.601 545.888C602.601 545.074 602.703 544.24 602.601 543.386C602.601 541.677 602.601 539.887 602.601 538.036C602.601 530.605 602.601 522.069 602.601 512.428C602.601 473.781 602.5 418.089 602.439 349.196C602.439 314.719 602.439 276.988 602.439 236.47C602.525 232.675 601.384 228.954 599.185 225.861C596.986 222.768 593.847 220.467 590.234 219.303C587.779 218.556 585.207 218.266 582.647 218.448H484.2H341.228H212.31C211.476 218.448 210.703 218.448 209.91 218.448C209.122 218.541 208.341 218.684 207.571 218.875C204.461 219.624 201.619 221.219 199.36 223.485C197.102 225.75 195.515 228.597 194.777 231.71C194.257 234.588 194.087 237.518 194.268 240.436V370.615C194.268 415.668 194.268 459.319 194.268 501.159V539.806C194.15 542.306 194.259 544.811 194.594 547.291C195.065 549.687 196.033 551.958 197.434 553.958C198.835 555.959 200.639 557.644 202.73 558.905C204.808 560.163 207.132 560.96 209.544 561.244C211.924 561.489 214.466 561.346 216.907 561.387H260.456H367.04H367.263L367.385 561.57L396.818 606.319H396.208L426.454 561.57L426.555 561.428H426.718L543.391 561.956L426.82 562.099L427.084 561.956C417.728 575.896 407.673 590.846 396.92 606.807L396.614 607.275L396.309 606.807L366.816 562.058L367.141 562.241H260.558H216.968C214.487 562.241 212.066 562.343 209.503 562.099C205.676 561.661 202.081 560.04 199.219 557.463C196.357 554.885 194.37 551.479 193.536 547.718C193.173 545.179 193.05 542.612 193.17 540.05V501.403C193.17 459.563 193.17 415.974 193.17 370.859V236.165C193.122 231.989 194.493 227.921 197.057 224.625C199.621 221.33 203.227 219.001 207.286 218.021C208.103 217.821 208.932 217.672 209.768 217.574C210.602 217.574 211.456 217.574 212.27 217.574H582.668C585.325 217.401 587.992 217.711 590.54 218.489C593.069 219.344 595.386 220.731 597.333 222.557C599.274 224.338 600.807 226.516 601.828 228.944C602.82 231.363 603.312 233.957 603.273 236.572C603.273 277.09 603.273 314.821 603.273 349.298C603.273 418.191 603.151 473.964 603.11 512.529C603.11 522.171 603.11 530.707 603.11 538.138C603.11 539.989 603.11 541.779 603.11 543.487C603.11 544.342 603.11 545.196 603.008 546.01C602.921 546.812 602.778 547.607 602.581 548.389C601.784 551.677 600.077 554.674 597.656 557.038C595.235 559.401 592.198 561.035 588.892 561.753C587.935 561.954 586.961 562.07 585.983 562.099L584.844 561.956Z" fill="#263238"/>
<path d="M352.679 407.37C352.679 411.438 349.689 413.838 344.889 413.838H341.288V418.781H337.22V400.861H344.97C349.689 400.943 352.679 403.424 352.679 407.37ZM348.468 407.37C348.468 405.336 347.207 404.238 344.665 404.238H341.288V410.462H344.665C347.207 410.543 348.468 409.404 348.468 407.37Z" fill="#263238"/>
<path d="M367.386 411.009V418.86H363.643V417.152C363.179 417.816 362.545 418.343 361.809 418.679C361.072 419.015 360.258 419.148 359.453 419.064C356.239 419.064 354.307 417.274 354.307 414.894C354.307 412.514 356.036 410.826 360.226 410.826H363.399C363.399 409.117 362.382 408.121 360.226 408.121C358.8 408.109 357.409 408.558 356.259 409.402L354.815 406.616C356.586 405.484 358.653 404.904 360.755 404.948C364.965 404.887 367.386 406.839 367.386 411.009ZM363.317 414.508V413.104H360.571C358.7 413.104 358.11 413.796 358.11 414.711C358.11 415.626 358.965 416.379 360.368 416.379C361.008 416.44 361.651 416.29 362.198 415.952C362.745 415.615 363.167 415.107 363.399 414.508H363.317Z" fill="#263238"/>
<path d="M369.663 417.541L370.985 414.673C372.439 415.533 374.096 415.99 375.786 415.996C377.616 415.996 378.308 415.528 378.308 414.755C378.308 412.497 369.989 414.755 369.989 409.304C369.989 406.7 372.348 404.849 376.375 404.849C378.209 404.821 380.022 405.232 381.664 406.049L380.342 408.897C379.102 408.197 377.697 407.846 376.274 407.88C374.484 407.88 373.711 408.429 373.711 409.141C373.711 411.5 382.03 409.141 382.03 414.653C382.03 417.216 379.65 419.026 375.521 419.026C373.474 419.041 371.456 418.53 369.663 417.541Z" fill="#263238"/>
<path d="M383.251 417.542L384.574 414.674C386.022 415.53 387.671 415.986 389.354 415.996C391.205 415.996 391.896 415.528 391.896 414.755C391.896 412.497 383.577 414.755 383.577 409.304C383.577 406.7 385.936 404.849 389.943 404.849C391.784 404.818 393.604 405.23 395.252 406.049L393.91 408.897C392.702 408.21 391.333 407.859 389.943 407.88C388.153 407.88 387.401 408.429 387.401 409.141C387.401 411.501 395.7 409.141 395.7 414.653C395.7 417.216 393.32 419.027 389.211 419.027C387.129 419.062 385.074 418.55 383.251 417.542Z" fill="#263238"/>
<path d="M420.006 405.092L415.022 418.862H411.178L408.086 410.319L404.893 418.862H401.008L396.045 405.092H399.808L403.062 414.408L406.439 405.092H409.815L413.09 414.408L416.446 405.092H420.006Z" fill="#263238"/>
<path d="M420.474 411.984C420.376 410.471 420.735 408.963 421.505 407.656C422.275 406.349 423.419 405.304 424.79 404.656C426.162 404.007 427.696 403.786 429.194 404.021C430.693 404.255 432.086 404.934 433.194 405.971C434.301 407.007 435.072 408.352 435.406 409.831C435.74 411.311 435.621 412.856 435.065 414.268C434.51 415.679 433.543 416.891 432.29 417.746C431.038 418.601 429.557 419.06 428.04 419.063C427.071 419.13 426.097 418.997 425.181 418.671C424.265 418.345 423.426 417.835 422.717 417.17C422.007 416.506 421.441 415.703 421.055 414.811C420.669 413.919 420.471 412.957 420.474 411.984ZM431.559 411.984C431.508 411.297 431.257 410.64 430.837 410.093C430.417 409.547 429.847 409.135 429.196 408.907C428.546 408.68 427.843 408.648 427.174 408.815C426.505 408.981 425.9 409.34 425.432 409.845C424.964 410.351 424.654 410.983 424.54 411.662C424.425 412.342 424.512 413.04 424.789 413.671C425.066 414.302 425.521 414.839 426.099 415.215C426.676 415.591 427.351 415.79 428.04 415.788C428.525 415.787 429.004 415.686 429.447 415.49C429.89 415.294 430.288 415.008 430.615 414.651C430.942 414.293 431.191 413.871 431.347 413.412C431.502 412.953 431.561 412.467 431.519 411.984H431.559Z" fill="#263238"/>
<path d="M446.794 404.888V408.57H445.899C445.392 408.522 444.881 408.59 444.404 408.767C443.927 408.945 443.496 409.228 443.144 409.596C442.792 409.964 442.527 410.407 442.37 410.891C442.214 411.376 442.168 411.889 442.238 412.394V418.903H438.17V405.132H441.994V406.943C442.563 406.231 443.299 405.672 444.136 405.313C444.974 404.955 445.887 404.809 446.794 404.888Z" fill="#263238"/>
<path d="M463.067 399.883V418.861H459.263V417.274C458.73 417.879 458.067 418.354 457.324 418.664C456.58 418.974 455.775 419.111 454.971 419.064C453.083 419.064 451.272 418.314 449.937 416.979C448.602 415.644 447.852 413.833 447.852 411.945C447.852 410.057 448.602 408.246 449.937 406.911C451.272 405.576 453.083 404.826 454.971 404.826C455.729 404.796 456.485 404.929 457.187 405.217C457.889 405.505 458.52 405.94 459.039 406.494V399.822L463.067 399.883ZM459.161 412.088C459.11 411.4 458.859 410.743 458.439 410.196C458.019 409.65 457.449 409.238 456.798 409.011C456.148 408.783 455.445 408.751 454.776 408.918C454.108 409.084 453.502 409.443 453.034 409.949C452.566 410.454 452.256 411.086 452.142 411.766C452.027 412.445 452.114 413.143 452.391 413.774C452.668 414.405 453.123 414.942 453.701 415.318C454.278 415.694 454.953 415.893 455.642 415.891C456.14 415.897 456.633 415.798 457.089 415.598C457.545 415.399 457.953 415.104 458.286 414.735C458.619 414.365 458.869 413.929 459.02 413.455C459.171 412.981 459.219 412.48 459.161 411.986V412.088Z" fill="#263238"/>
<path d="M297.984 449.76H272.07C265.914 449.76 260.924 454.75 260.924 460.906V505.309C260.924 511.465 265.914 516.456 272.07 516.456H297.984C304.14 516.456 309.131 511.465 309.131 505.309V460.906C309.131 454.75 304.14 449.76 297.984 449.76Z" fill="#EBEBEB"/>
<path d="M411.748 449.76H387.136C380.98 449.76 375.989 454.75 375.989 460.906V505.309C375.989 511.465 380.98 516.456 387.136 516.456H411.748C417.904 516.456 422.894 511.465 422.894 505.309V460.906C422.894 454.75 417.904 449.76 411.748 449.76Z" fill="#EBEBEB"/>
<path d="M355.364 449.76H330.752C324.596 449.76 319.605 454.75 319.605 460.906V505.309C319.605 511.465 324.596 516.456 330.752 516.456H355.364C361.52 516.456 366.51 511.465 366.51 505.309V460.906C366.51 454.75 361.52 449.76 355.364 449.76Z" fill="#EBEBEB"/>
<path d="M469.189 449.76H443.255C437.099 449.76 432.108 454.75 432.108 460.906V505.309C432.108 511.465 437.099 516.456 443.255 516.456H469.189C475.345 516.456 480.335 511.465 480.335 505.309V460.906C480.335 454.75 475.345 449.76 469.189 449.76Z" fill="#EBEBEB"/>
<path d="M524.494 449.76H498.56C492.404 449.76 487.414 454.75 487.414 460.906V505.309C487.414 511.465 492.404 516.456 498.56 516.456H524.494C530.65 516.456 535.641 511.465 535.641 505.309V460.906C535.641 454.75 530.65 449.76 524.494 449.76Z" fill="#EBEBEB"/>
<path d="M291.17 481.346L296.316 484.132L293.997 488.017L288.811 484.926V490.662H284.376V484.885L279.169 488.017L276.891 484.132L282.058 481.346L276.891 478.498L279.169 474.613L284.376 477.745V471.969H288.811V477.745L293.997 474.613L296.316 478.498L291.17 481.346Z" fill="#FFBB15"/>
<path d="M347.431 481.041L352.598 483.828L350.279 487.713L345.072 484.662L345.173 490.398H340.719V484.621L335.512 487.754L333.254 483.869L338.4 481.082L333.254 478.234L335.512 474.349L340.719 477.482V471.705H345.173L345.072 477.482L350.279 474.349L352.598 478.234L347.431 481.041Z" fill="#FFBB15"/>
<path d="M405.076 481.043L410.242 483.83L407.923 487.715L402.614 484.664L402.716 490.4H398.262V484.623L393.054 487.755L390.837 483.83L395.984 481.043L390.837 478.195L393.095 474.31L398.302 477.443V471.666H402.757L402.655 477.443L407.862 474.31L410.181 478.195L405.076 481.043Z" fill="#FFBB15"/>
<path d="M460.727 481.041L465.873 483.828L463.555 487.713L458.347 484.662L458.449 490.398H453.995V484.621L448.787 487.754L446.509 483.869L451.676 481.082L446.509 478.234L448.787 474.349L453.995 477.482V471.705H458.449L458.347 477.482L463.555 474.349L465.873 478.234L460.727 481.041Z" fill="#FFBB15"/>
<path d="M297.496 516.882H272.559C269.474 516.876 266.518 515.649 264.337 513.468C262.157 511.287 260.929 508.331 260.924 505.247V460.986C260.929 457.902 262.157 454.946 264.337 452.765C266.518 450.584 269.474 449.357 272.559 449.352H297.496C300.582 449.352 303.541 450.577 305.723 452.759C307.905 454.941 309.131 457.901 309.131 460.986V505.247C309.125 508.331 307.898 511.287 305.717 513.468C303.536 515.649 300.58 516.876 297.496 516.882ZM272.559 450.084C269.692 450.089 266.945 451.232 264.92 453.26C262.895 455.289 261.758 458.039 261.758 460.905V505.166C261.758 508.03 262.896 510.777 264.921 512.803C266.947 514.828 269.694 515.966 272.559 515.966H297.496C300.362 515.966 303.112 514.829 305.14 512.804C307.169 510.779 308.311 508.032 308.317 505.166V460.986C308.311 458.118 307.17 455.369 305.142 453.341C303.113 451.312 300.364 450.171 297.496 450.165L272.559 450.084Z" fill="#263238"/>
<path d="M355.425 516.882H330.468C327.384 516.876 324.427 515.649 322.247 513.468C320.066 511.287 318.838 508.331 318.833 505.247V460.986C318.838 457.902 320.066 454.946 322.247 452.765C324.427 450.584 327.384 449.357 330.468 449.352H355.425C358.508 449.357 361.462 450.585 363.639 452.766C365.817 454.948 367.04 457.904 367.04 460.986V505.247C367.04 508.329 365.817 511.285 363.639 513.467C361.462 515.648 358.508 516.876 355.425 516.882ZM330.468 450.084C327.601 450.089 324.854 451.232 322.829 453.26C320.804 455.289 319.667 458.039 319.667 460.905V505.166C319.667 508.03 320.805 510.777 322.83 512.803C324.856 514.828 327.603 515.966 330.468 515.966H355.425C358.29 515.966 361.037 514.828 363.063 512.803C365.088 510.777 366.226 508.03 366.226 505.166V460.986C366.226 458.12 365.089 455.371 363.064 453.342C361.039 451.313 358.292 450.171 355.425 450.165L330.468 450.084Z" fill="#263238"/>
<path d="M411.748 516.882H386.77C383.686 516.876 380.73 515.649 378.549 513.468C376.368 511.287 375.141 508.331 375.135 505.247V460.986C375.141 457.902 376.368 454.946 378.549 452.765C380.73 450.584 383.686 449.357 386.77 449.352H411.728C414.81 449.357 417.764 450.585 419.941 452.766C422.119 454.948 423.342 457.904 423.342 460.986V505.247C423.342 508.326 422.122 511.279 419.949 513.46C417.775 515.64 414.827 516.871 411.748 516.882ZM386.77 450.084C383.904 450.089 381.156 451.232 379.131 453.26C377.106 455.289 375.969 458.039 375.969 460.905V505.166C375.969 508.03 377.107 510.777 379.133 512.803C381.158 514.828 383.905 515.966 386.77 515.966H411.728C413.146 515.966 414.55 515.687 415.861 515.144C417.171 514.601 418.362 513.806 419.365 512.803C420.368 511.8 421.163 510.609 421.706 509.299C422.249 507.988 422.528 506.584 422.528 505.166V460.986C422.528 458.12 421.391 455.371 419.366 453.342C417.341 451.313 414.594 450.171 411.728 450.165L386.77 450.084Z" fill="#263238"/>
<path d="M468.701 516.882H443.723C440.639 516.876 437.682 515.649 435.502 513.468C433.321 511.287 432.093 508.331 432.088 505.247V460.986C432.088 457.901 433.314 454.941 435.496 452.759C437.678 450.577 440.637 449.352 443.723 449.352H468.66C471.744 449.357 474.7 450.584 476.881 452.765C479.062 454.946 480.289 457.902 480.295 460.986V505.247C480.289 508.324 479.067 511.274 476.895 513.454C474.723 515.633 471.778 516.865 468.701 516.882ZM443.723 450.084C440.854 450.089 438.105 451.231 436.077 453.259C434.049 455.287 432.907 458.037 432.901 460.905V505.166C432.907 508.032 434.049 510.779 436.078 512.804C438.107 514.829 440.856 515.966 443.723 515.966H468.66C471.524 515.966 474.272 514.828 476.297 512.803C478.323 510.777 479.461 508.03 479.461 505.166V460.986C479.461 458.12 478.323 455.371 476.298 453.342C474.273 451.313 471.526 450.171 468.66 450.165L443.723 450.084Z" fill="#263238"/>
<path d="M524.006 516.882H499.069C495.985 516.876 493.029 515.649 490.848 513.468C488.667 511.287 487.439 508.331 487.434 505.247V460.986C487.434 457.901 488.66 454.941 490.842 452.759C493.024 450.577 495.983 449.352 499.069 449.352H524.006C527.09 449.357 530.046 450.584 532.227 452.765C534.408 454.946 535.635 457.902 535.641 460.986V505.247C535.635 508.331 534.408 511.287 532.227 513.468C530.046 515.649 527.09 516.876 524.006 516.882ZM499.069 450.084C496.201 450.089 493.451 451.231 491.423 453.259C489.395 455.287 488.253 458.037 488.248 460.905V505.166C488.253 508.032 489.396 510.779 491.424 512.804C493.453 514.829 496.202 515.966 499.069 515.966H524.006C526.871 515.966 529.618 514.828 531.643 512.803C533.669 510.777 534.807 508.03 534.807 505.166V460.986C534.807 458.12 533.67 455.371 531.645 453.342C529.62 451.313 526.872 450.171 524.006 450.165L499.069 450.084Z" fill="#263238"/>
<path d="M524.901 499.164C520.468 499.7 515.999 499.877 511.537 499.693C507.076 499.877 502.607 499.7 498.174 499.164C502.608 498.641 507.076 498.464 511.537 498.635C515.999 498.464 520.467 498.641 524.901 499.164Z" fill="#FFBB15"/>
<path d="M400.479 380.601C430.237 380.601 454.361 356.478 454.361 326.72C454.361 296.962 430.237 272.838 400.479 272.838C370.721 272.838 346.598 296.962 346.598 326.72C346.598 356.478 370.721 380.601 400.479 380.601Z" fill="#FFBB15"/>
<path d="M391 316.916H390.105V311.892C390.043 310.474 390.268 309.057 390.768 307.728C391.268 306.399 392.032 305.185 393.014 304.159C393.995 303.134 395.175 302.317 396.48 301.759C397.786 301.202 399.191 300.914 400.611 300.914C402.031 300.914 403.436 301.202 404.742 301.759C406.048 302.317 407.227 303.134 408.209 304.159C409.191 305.185 409.954 306.399 410.454 307.728C410.954 309.057 411.179 310.474 411.117 311.892V315.96H410.222V311.892C410.282 310.593 410.078 309.295 409.622 308.077C409.165 306.859 408.467 305.746 407.569 304.805C406.671 303.865 405.591 303.116 404.395 302.604C403.199 302.093 401.912 301.829 400.611 301.829C399.31 301.829 398.023 302.093 396.827 302.604C395.632 303.116 394.552 303.865 393.653 304.805C392.755 305.746 392.057 306.859 391.601 308.077C391.145 309.295 390.941 310.593 391 311.892V316.916Z" fill="white"/>
<path d="M413.842 352.044H387.135C386.552 352.047 385.975 351.934 385.435 351.712C384.896 351.49 384.406 351.164 383.994 350.751C383.582 350.339 383.255 349.849 383.033 349.31C382.811 348.771 382.699 348.193 382.701 347.61V320.903C382.701 319.727 383.168 318.599 384 317.767C384.832 316.936 385.959 316.469 387.135 316.469H413.842C415.017 316.474 416.141 316.943 416.972 317.773C417.802 318.604 418.271 319.729 418.277 320.903V347.61C418.277 348.786 417.809 349.914 416.978 350.745C416.146 351.577 415.018 352.044 413.842 352.044ZM387.135 317.364C386.197 317.364 385.297 317.737 384.633 318.4C383.969 319.064 383.596 319.964 383.596 320.903V347.61C383.596 348.075 383.688 348.535 383.866 348.964C384.043 349.394 384.304 349.784 384.633 350.112C384.961 350.441 385.352 350.702 385.781 350.88C386.21 351.058 386.671 351.149 387.135 351.149H413.842C414.307 351.149 414.767 351.058 415.197 350.88C415.626 350.702 416.016 350.441 416.345 350.112C416.674 349.784 416.934 349.394 417.112 348.964C417.29 348.535 417.382 348.075 417.382 347.61V320.903C417.382 319.964 417.009 319.064 416.345 318.4C415.681 317.737 414.781 317.364 413.842 317.364H387.135Z" fill="white"/>
<path d="M400.621 335.142C399.787 335.146 398.97 334.902 398.275 334.44C397.579 333.979 397.036 333.322 396.715 332.552C396.394 331.782 396.309 330.933 396.471 330.115C396.632 329.296 397.034 328.544 397.624 327.954C398.214 327.364 398.966 326.962 399.785 326.801C400.603 326.639 401.452 326.724 402.222 327.045C402.992 327.366 403.649 327.909 404.11 328.605C404.571 329.3 404.815 330.117 404.811 330.951C404.806 332.061 404.363 333.124 403.578 333.908C402.794 334.693 401.731 335.136 400.621 335.142ZM400.621 327.656C399.97 327.656 399.333 327.85 398.791 328.212C398.249 328.574 397.826 329.088 397.577 329.69C397.328 330.293 397.262 330.955 397.39 331.594C397.517 332.234 397.831 332.821 398.291 333.281C398.752 333.742 399.339 334.056 399.979 334.183C400.618 334.31 401.28 334.245 401.882 333.996C402.484 333.746 402.999 333.324 403.361 332.782C403.723 332.24 403.916 331.603 403.916 330.951C403.919 330.518 403.836 330.088 403.671 329.687C403.507 329.286 403.264 328.922 402.957 328.615C402.651 328.309 402.287 328.066 401.886 327.902C401.485 327.737 401.055 327.654 400.621 327.656Z" fill="white"/>
<path d="M400.927 334.49H400.032V342.057H400.927V334.49Z" fill="white"/>
<path d="M582.911 252.126C584.886 243.152 579.212 234.276 570.237 232.301C561.263 230.326 552.387 236 550.412 244.975C548.437 253.949 554.112 262.826 563.086 264.8C572.061 266.775 580.937 261.101 582.911 252.126Z" fill="#E0E0E0"/>
<path d="M561.31 254.469C561.241 254.468 561.173 254.453 561.111 254.425C561.048 254.398 560.991 254.357 560.944 254.307C560.896 254.261 560.857 254.206 560.83 254.145C560.804 254.083 560.79 254.017 560.79 253.951C560.79 253.884 560.804 253.818 560.83 253.757C560.857 253.695 560.896 253.64 560.944 253.595L571.725 242.814C571.77 242.766 571.825 242.727 571.887 242.7C571.948 242.674 572.014 242.66 572.081 242.66C572.147 242.66 572.213 242.674 572.274 242.7C572.336 242.727 572.391 242.766 572.436 242.814C572.486 242.862 572.525 242.919 572.552 242.981C572.578 243.044 572.592 243.112 572.592 243.18C572.592 243.249 572.578 243.316 572.552 243.379C572.525 243.442 572.486 243.499 572.436 243.547L561.656 254.307C561.566 254.404 561.442 254.462 561.31 254.469Z" fill="white"/>
<path d="M572.07 254.469C571.938 254.462 571.814 254.404 571.725 254.307L560.944 243.547C560.895 243.499 560.856 243.442 560.829 243.379C560.802 243.316 560.789 243.249 560.789 243.18C560.789 243.112 560.802 243.044 560.829 242.981C560.856 242.919 560.895 242.862 560.944 242.814C560.99 242.766 561.045 242.727 561.106 242.7C561.167 242.674 561.233 242.66 561.3 242.66C561.367 242.66 561.433 242.674 561.494 242.7C561.555 242.727 561.61 242.766 561.656 242.814L572.436 253.595C572.485 253.64 572.524 253.695 572.55 253.757C572.577 253.818 572.591 253.884 572.591 253.951C572.591 254.017 572.577 254.083 572.55 254.145C572.524 254.206 572.485 254.261 572.436 254.307C572.39 254.357 572.333 254.398 572.27 254.425C572.207 254.453 572.139 254.468 572.07 254.469Z" fill="white"/>
<path d="M766.953 613.967L718.075 606.889L620.299 621.351L592.86 631.053L597.721 691.057L691.734 708.367L755.156 689.572L779.137 654.282L766.953 613.967Z" fill="#FFBE9D"/>
<path d="M797.769 619.704L756.844 610.062C756.844 610.062 727.94 699.56 656.566 695.634C598.392 692.482 597.721 627.555 597.721 627.555L555.8 640.98C555.8 640.98 539.751 748.519 557.508 824.714C561.576 842.512 567.211 866.494 567.211 866.494L561.536 977.816L871.604 978.305L797.769 619.704Z" fill="#FFBB15"/>
<g opacity="0.3">
<path d="M676.214 956.216C691.306 955.829 705.219 957.111 720.312 956.745C738.415 956.297 756.66 955.85 774.539 958.779C787.923 960.996 800.982 965.064 814.366 967.179C832.672 970.068 852.178 969.051 868.451 960.243L865.827 945.049L804.033 930.119L676.214 956.216Z" fill="black"/>
</g>
<path d="M520.793 666.039C535.031 647.733 558.545 640.105 558.545 640.105L574.41 778.196L544.368 979.281L445.961 978.813C445.961 978.813 500.229 692.584 520.793 666.039Z" fill="#FFBB15"/>
<path d="M792.988 618.688C792.988 618.688 859.217 623.996 882.974 732.594C893.714 781.675 907.383 839.177 911.227 877.844C914.054 905.873 898.819 949.768 870.872 953.368L835.724 958.087C828.832 959.079 821.818 958.824 815.017 957.334C792.826 952.229 790.609 936.994 786.541 920.722L776.37 888.34C770.757 857.544 799.457 851.727 815.302 852.154L803.484 711.582L792.988 618.688Z" fill="#FFBB15"/>
<path d="M550.349 716.891C550.193 717.38 550.091 717.885 550.043 718.396C549.881 719.494 549.657 720.959 549.372 722.769C549.25 723.725 549.087 724.803 548.925 725.942C548.762 727.081 548.681 728.363 548.538 729.725C548.253 732.431 547.928 735.522 547.786 738.96C547.315 747 547.261 755.059 547.623 763.104C548.107 772.944 549.085 782.754 550.552 792.496C552.077 802.89 553.989 812.694 555.942 821.562C557.895 830.431 559.786 838.384 561.454 845.055C563.122 851.727 564.526 857.076 565.522 860.778C566.011 862.548 566.397 863.972 566.702 865.03C566.812 865.534 566.976 866.025 567.19 866.494C567.147 865.984 567.051 865.48 566.906 864.989C566.662 863.89 566.336 862.467 565.929 860.677C565.014 856.832 563.732 851.462 562.146 844.872C560.559 838.282 558.729 830.227 556.878 821.359C555.027 812.49 553.094 802.707 551.589 792.353C550.084 782 549.026 772.013 548.579 763.043C548.131 754.073 548.111 745.835 548.579 739.001C548.681 735.563 548.945 732.492 549.169 729.766C549.264 728.41 549.365 727.149 549.474 725.983C549.596 724.844 549.718 723.786 549.82 722.81C550.023 720.999 550.186 719.535 550.288 718.416C550.358 717.911 550.378 717.4 550.349 716.891Z" fill="#263238"/>
<path d="M867.272 890.191C867.227 889.247 867.07 888.311 866.804 887.404C866.155 884.956 865.298 882.567 864.241 880.265C860.766 872.587 855.357 865.943 848.543 860.984C841.729 856.024 833.745 852.919 825.371 851.971C822.854 851.665 820.315 851.583 817.784 851.727C816.852 851.738 815.924 851.854 815.018 852.073C818.417 852.093 821.812 852.303 825.188 852.703C833.372 853.839 841.149 856.977 847.83 861.838C854.511 866.698 859.889 873.133 863.489 880.57C864.917 883.708 866.18 886.92 867.272 890.191Z" fill="#263238"/>
<path d="M851.975 836.124C851.451 835.991 850.908 835.943 850.369 835.981C848.908 835.954 847.447 836.022 845.995 836.185C841.193 836.673 836.487 837.851 832.021 839.683C827.561 841.535 823.384 844.007 819.614 847.026C818.476 847.935 817.396 848.913 816.38 849.955C815.668 850.708 815.302 851.135 815.342 851.196C815.383 851.257 817.132 849.772 820.082 847.616C827.752 841.983 836.683 838.31 846.097 836.917C849.697 836.388 851.975 836.307 851.975 836.124Z" fill="#263238"/>
<path d="M783.408 695.634C783.557 694.672 783.611 693.698 783.571 692.726C783.571 690.854 783.693 688.17 783.917 684.854C785.103 667.514 789.853 650.604 797.87 635.183C799.396 632.234 800.718 629.874 801.674 628.287C802.21 627.479 802.666 626.621 803.037 625.725C802.388 626.448 801.809 627.231 801.308 628.064C800.25 629.61 798.826 631.908 797.24 634.837C788.796 650.209 783.994 667.314 783.205 684.834C783.083 688.17 783.083 690.936 783.205 692.746C783.173 693.713 783.241 694.681 783.408 695.634Z" fill="#263238"/>
<path d="M656.566 794.141C656.61 794.532 656.705 794.915 656.851 795.28C657.095 796.013 657.4 797.131 657.949 798.474C659.432 802.361 661.277 806.1 663.461 809.641C670.68 821.448 681.157 830.918 693.633 836.908C706.108 842.899 720.05 845.155 733.778 843.406C737.919 842.891 742.004 841.999 745.982 840.741C747.386 840.314 748.443 839.846 749.155 839.582C749.529 839.461 749.89 839.304 750.233 839.114C750.233 839.012 748.667 839.541 745.86 840.334C741.866 841.454 737.783 842.23 733.656 842.653C720.085 844.249 706.339 841.958 694.02 836.045C681.701 830.132 671.315 820.841 664.071 809.254C661.857 805.774 659.925 802.121 658.295 798.332C657.298 795.647 656.647 794.101 656.566 794.141Z" fill="#263238"/>
<path d="M796.141 946.797C796.243 946.696 797.28 948.18 799.762 950.214C803.392 952.954 807.546 954.92 811.966 955.991C818.477 957.62 825.203 958.218 831.899 957.761C839.466 957.212 847.826 956.317 856.491 955.035C864.653 953.979 872.692 952.125 880.493 949.503C883.749 948.071 886.729 946.082 889.3 943.624C891.567 941.498 893.612 939.147 895.402 936.607C898.055 932.936 900.324 929.003 902.175 924.87C902.806 923.386 903.294 922.246 903.599 921.453C903.72 921.037 903.898 920.64 904.128 920.273C904.052 920.695 903.943 921.11 903.803 921.514C903.559 922.348 903.131 923.548 902.542 925.033C900.835 929.278 898.644 933.312 896.012 937.054C894.234 939.66 892.189 942.073 889.91 944.255C887.287 946.81 884.229 948.877 880.879 950.357C873.03 953.084 864.918 954.986 856.674 956.032C847.948 957.334 839.608 958.188 831.981 958.696C825.183 959.096 818.365 958.409 811.783 956.662C807.329 955.514 803.17 953.434 799.579 950.56C798.633 949.743 797.768 948.837 796.995 947.855C796.667 947.54 796.38 947.185 796.141 946.797Z" fill="#263238"/>
<path d="M785.218 730.213C785.482 730.213 792.479 757.245 800.799 790.766C809.118 824.287 815.647 851.503 815.362 851.584C815.078 851.665 808.101 824.531 799.782 791.01C791.462 757.489 784.933 730.274 785.218 730.213Z" fill="#263238"/>
<path d="M776.777 883.336C776.56 882.61 776.444 881.857 776.431 881.099C776.228 879.071 776.18 877.031 776.289 874.997C776.522 871.893 777.551 868.901 779.279 866.311C780.257 864.772 781.396 863.34 782.676 862.04C784.093 860.686 785.671 859.511 787.375 858.541C793.399 855.381 799.921 853.275 806.657 852.317C808.68 852.026 810.717 851.849 812.759 851.788C813.508 851.677 814.269 851.677 815.017 851.788C815.017 851.951 811.824 852.073 806.759 852.988C800.173 854.123 793.805 856.277 787.883 859.375C786.251 860.304 784.735 861.423 783.368 862.711C782.133 863.951 781.029 865.314 780.072 866.779C778.388 869.192 777.339 871.99 777.021 874.915C776.841 876.944 776.78 878.982 776.838 881.018C776.908 881.79 776.887 882.568 776.777 883.336Z" fill="#263238"/>
<g opacity="0.3">
<path d="M553.399 808.074C536.496 779.455 536.13 742.273 550.876 712.475C546.154 744.224 547.174 776.563 553.887 807.952" fill="black"/>
</g>
<path d="M580.35 936.443C585.679 926.395 627.234 899.831 627.234 899.831L615.986 897.227L603.558 902.475C602.618 906.688 600.795 910.654 598.208 914.11C593.652 920.619 585.902 913.886 585.902 913.886L591.15 888.725L615.721 873.938C615.721 873.938 638.828 877.477 642.571 879.267L652.415 888.277C656.748 891.674 669.237 905.038 672.654 905.445C676.071 905.852 783.407 881.748 783.407 881.748C798.114 893.403 805.782 916.53 808.182 933.23C808.182 933.23 810.806 941.366 807.958 945.881L676.295 956.214L648.388 963.923C640.915 967.014 633.26 969.643 625.464 971.795C616.189 973.829 609.945 970.758 609.68 965.693C609.416 960.628 616.637 959.998 616.637 959.998C622.793 957.788 628.788 955.151 634.577 952.106C638.816 949.281 642.306 945.47 644.747 941L634.801 942.179C634.801 942.179 613.647 956.865 605.694 961.177C597.741 965.489 596.174 957.577 595.523 955.075C594.873 952.573 619.281 928.816 619.281 928.816C619.281 928.816 596.073 943.054 591.903 946.715C587.733 950.377 581.55 951.414 580.227 948.993C578.905 946.573 575.041 946.492 580.35 936.443Z" fill="#FFBE9D"/>
<path d="M694.784 938.761C694.903 938.227 694.944 937.679 694.906 937.134C694.93 936.494 694.889 935.854 694.784 935.222C694.703 934.376 694.546 933.539 694.317 932.72C692.994 927.969 690.701 923.544 687.584 919.723C684.544 915.888 681.138 912.359 677.414 909.186C675.953 907.79 674.351 906.55 672.634 905.484C673.987 906.971 675.427 908.377 676.946 909.695C680.488 912.99 683.779 916.546 686.791 920.333C689.839 924.056 692.158 928.321 693.625 932.903C694.683 936.442 694.581 938.782 694.784 938.761Z" fill="#EB996E"/>
<path d="M628.191 899.079C630.571 899.429 633 899.212 635.28 898.445C637.56 897.678 639.627 896.383 641.31 894.665C641.148 894.441 638.605 896.333 634.964 897.512C631.323 898.692 628.191 898.794 628.191 899.079Z" fill="#EB996E"/>
<path d="M621.275 926.619C628.436 924.373 635.391 921.515 642.063 918.076C638.431 919.036 634.891 920.315 631.486 921.9C627.955 923.181 624.539 924.76 621.275 926.619Z" fill="#EB996E"/>
<path d="M643.568 940.694C645.441 940.265 647.257 939.617 648.978 938.762C650.826 938.224 652.601 937.466 654.267 936.504C650.385 936.899 646.686 938.348 643.568 940.694Z" fill="#EB996E"/>
<path d="M624.753 928.448C626.245 929.478 627.611 930.679 628.821 932.028C629.804 933.568 630.596 935.22 631.18 936.951C631.303 936.951 631.425 936.28 631.18 935.222C630.933 933.846 630.361 932.549 629.513 931.439C628.672 930.328 627.577 929.435 626.319 928.835C625.404 928.387 624.753 928.347 624.753 928.448Z" fill="#EB996E"/>
<path d="M614.95 913.094C614.807 913.338 616.638 914.335 617.838 916.43C618.449 917.776 618.945 919.171 619.323 920.6C619.618 919.82 619.711 918.979 619.594 918.154C619.476 917.329 619.152 916.547 618.652 915.881C617.289 913.521 614.99 912.83 614.95 913.094Z" fill="#EB996E"/>
<path d="M618.244 885.635C618.366 885.635 618.732 885.228 619.037 884.312C619.352 883.112 619.352 881.851 619.037 880.651C618.746 879.445 618.143 878.337 617.288 877.437C616.617 876.766 616.068 876.522 615.986 876.624C616.838 877.958 617.521 879.393 618.02 880.895C618.309 882.458 618.385 884.052 618.244 885.635Z" fill="#EB996E"/>
<path d="M809.037 949.645C808.902 948.641 808.848 947.628 808.875 946.615C808.875 945.638 808.875 944.459 808.732 943.076C808.59 941.692 808.61 940.126 808.407 938.418C807.644 929.391 805.709 920.502 802.651 911.975C800.933 907.317 798.852 902.801 796.426 898.469C795.206 896.435 794.148 894.625 792.928 892.977C792.358 892.143 791.789 891.35 791.24 890.577C790.69 889.804 790.1 889.113 789.551 888.543C785.178 883.153 781.822 880.407 781.985 880.244C782.838 880.787 783.629 881.421 784.344 882.136C785.26 882.904 786.129 883.726 786.948 884.597C787.904 885.594 788.982 886.631 790.141 888.055C790.69 888.746 791.28 889.438 791.89 890.089C792.501 890.74 793.05 891.655 793.66 892.489C794.921 894.137 796.02 896.049 797.26 898.001C799.773 902.354 801.91 906.913 803.647 911.629C806.733 920.221 808.589 929.205 809.159 938.316C809.302 940.045 809.281 941.631 809.322 943.014C809.363 944.398 809.322 945.598 809.322 946.574C809.332 947.605 809.236 948.634 809.037 949.645Z" fill="#263238"/>
<g opacity="0.3">
<path d="M854.214 855.57C841.867 850.472 828.266 849.231 815.201 852.011C826.432 851.493 837.544 854.496 846.985 860.601C856.426 866.705 863.725 875.606 867.862 886.061C868.798 888.583 870.669 891.573 873.354 891.186C876.039 890.8 876.771 887.688 876.771 885.186C876.791 872.026 866.357 860.635 854.214 855.57Z" fill="black"/>
</g>
<path d="M549.494 707.575C548.885 707.464 548.296 707.265 547.744 706.985C546.626 706.558 545.059 705.846 543.147 704.951C538.158 702.46 533.394 699.54 528.909 696.225C524.441 692.926 520.263 689.251 516.42 685.241C514.956 683.695 513.796 682.393 513.064 681.478C512.332 680.563 511.925 680.014 511.986 679.953C512.047 679.892 513.898 681.783 516.949 684.712C520.914 688.537 525.12 692.103 529.54 695.391C533.973 698.652 538.614 701.621 543.432 704.28C547.256 706.375 549.616 707.432 549.494 707.575Z" fill="white"/>
<path d="M784.364 715.243C784.211 715.381 784.04 715.497 783.856 715.589L782.29 716.525C780.927 717.359 778.852 718.559 776.188 719.901C768.551 723.821 760.63 727.159 752.491 729.888C740.401 733.888 727.998 736.868 715.411 738.797C699.998 741.092 684.452 742.383 668.872 742.662C652.294 743.049 636.51 742.662 622.089 742.418C609.363 742.239 596.661 741.282 584.052 739.55C575.546 738.344 567.161 736.398 558.993 733.733C556.125 732.756 553.908 731.943 552.444 731.312L550.776 730.6C550.577 730.532 550.386 730.444 550.206 730.336L550.816 730.499L552.525 731.109C554.01 731.678 556.247 732.431 559.135 733.346C567.316 735.832 575.682 737.661 584.154 738.818C596.744 740.427 609.417 741.303 622.109 741.442C636.348 741.706 652.213 741.991 668.75 741.604C684.287 741.331 699.79 740.068 715.166 737.821C727.715 735.956 740.09 733.065 752.166 729.176C760.299 726.519 768.238 723.297 775.923 719.535C778.628 718.193 780.723 717.115 782.025 716.342L783.632 715.508C784.161 715.304 784.344 715.223 784.364 715.243Z" fill="white"/>
<path d="M550.267 787.734C549.409 787.655 548.562 787.478 547.745 787.205L540.971 785.354C535.276 783.748 527.425 781.449 518.76 778.866C510.095 776.283 502.284 773.862 496.629 772.072L489.958 769.916C489.131 769.679 488.327 769.365 487.558 768.98C488.416 769.059 489.262 769.237 490.08 769.509L496.853 771.36C502.548 772.967 510.4 775.266 519.065 777.849C527.73 780.432 535.541 782.832 541.195 784.622L547.867 786.799C548.698 787.025 549.502 787.339 550.267 787.734Z" fill="white"/>
<path d="M556.186 900.156C556.186 900.421 535.845 894.604 510.827 887.139C485.808 879.674 465.691 873.389 465.773 873.104C465.854 872.819 486.113 878.636 511.132 886.122C536.15 893.607 556.267 899.872 556.186 900.156Z" fill="white"/>
<path d="M850.165 656.926C849.481 657.59 848.731 658.183 847.928 658.695C846.463 659.773 844.266 661.279 841.52 663.069C827.155 672.361 811.746 679.932 795.612 685.626C792.52 686.704 789.998 687.518 788.229 688.026C787.333 688.352 786.406 688.584 785.462 688.718C786.309 688.279 787.194 687.918 788.107 687.64L795.368 684.934C801.47 682.595 809.83 679.137 818.78 674.764C827.73 670.391 835.581 665.876 841.154 662.458L847.745 658.39C848.502 657.824 849.312 657.333 850.165 656.926Z" fill="white"/>
<path d="M890.683 772.498C889.624 773.099 888.523 773.623 887.388 774.064C885.252 775.02 882.079 776.281 878.133 777.725C857.506 785.238 835.85 789.546 813.918 790.499C809.708 790.682 806.311 790.723 803.951 790.642C802.736 790.668 801.519 790.614 800.311 790.479C801.515 790.296 802.733 790.215 803.951 790.235C806.291 790.235 809.687 790.031 813.878 789.747C824.772 789.055 835.61 787.648 846.32 785.536C857.022 783.386 867.574 780.546 877.909 777.034C881.875 775.671 885.069 774.512 887.266 773.678C888.369 773.188 889.512 772.793 890.683 772.498Z" fill="white"/>
<path d="M832.225 957.352C832.21 956.969 832.244 956.586 832.327 956.213C832.449 955.379 832.632 954.321 832.836 953.019C833.039 951.717 833.344 949.927 833.548 947.934C833.751 945.941 834.097 943.703 834.178 941.181C834.178 939.94 834.341 938.618 834.422 937.255C834.504 935.893 834.422 934.448 834.422 932.984C834.422 930.035 834.3 926.882 834.137 923.566C833.603 916.386 832.508 909.259 830.863 902.25C829.136 895.258 826.872 888.41 824.089 881.767C822.706 878.757 821.465 875.848 820.021 873.265C819.33 871.963 818.699 870.681 817.987 869.481L815.953 866.105C814.712 863.908 813.37 862.037 812.292 860.389C811.214 858.742 810.258 857.318 809.342 856.199L807.43 853.575C807.185 853.285 806.98 852.964 806.82 852.619C807.102 852.866 807.361 853.138 807.593 853.433L809.627 855.955C810.735 857.256 811.774 858.614 812.739 860.023C813.878 861.671 815.262 863.501 816.543 865.678L818.577 869.054C819.289 870.234 819.94 871.536 820.611 872.837C822.076 875.421 823.377 878.329 824.679 881.36C830.539 894.688 833.983 908.952 834.849 923.485C834.971 926.821 835.154 929.994 835.032 932.964C835.032 934.448 835.032 935.893 834.91 937.276C834.788 938.659 834.707 939.961 834.605 941.222C834.463 943.764 834.056 946.002 833.792 947.995C833.527 949.989 833.222 951.697 832.917 953.06C832.612 954.423 832.388 955.399 832.205 956.253C832.252 956.618 832.258 956.986 832.225 957.352Z" fill="white"/>
<path d="M910.698 895.012C910.596 895.012 910.535 893.344 910.067 890.415C909.349 886.278 907.976 882.282 905.999 878.577C903.105 873.075 899.207 868.164 894.507 864.095C888.781 859.072 882.145 855.191 874.96 852.663C867.732 850.249 860.183 848.932 852.565 848.758C846.332 848.585 840.094 848.823 833.893 849.47C828.584 849.958 824.292 850.507 821.322 850.833L817.905 851.199C817.507 851.253 817.103 851.253 816.705 851.199C817.078 851.061 817.468 850.972 817.864 850.934L821.261 850.365C824.211 849.897 828.503 849.266 833.811 848.656C840.047 847.913 846.327 847.6 852.606 847.72C860.327 847.873 867.981 849.197 875.306 851.646C882.616 854.236 889.357 858.214 895.158 863.362C899.911 867.536 903.819 872.584 906.671 878.231C908.601 882.056 909.86 886.184 910.393 890.435C910.553 891.581 910.634 892.736 910.637 893.893C910.699 894.263 910.72 894.638 910.698 895.012Z" fill="white"/>
<path d="M691.876 836.123C691.499 836.238 691.11 836.307 690.716 836.326L687.401 836.672L675.197 837.689C664.884 838.483 650.626 839.459 634.882 840.272C619.139 841.086 604.839 841.595 594.486 841.717C589.32 841.717 585.13 841.717 582.282 841.717H578.966C578.576 841.729 578.186 841.688 577.807 841.595C578.188 841.516 578.577 841.482 578.966 841.493H582.282L594.486 841.188C604.799 840.883 619.078 840.272 634.821 839.439L675.136 837.16L687.34 836.469L690.676 836.326C691.065 836.206 691.469 836.138 691.876 836.123Z" fill="white"/>
<g opacity="0.3">
<path d="M703.694 840.356C716.508 844.119 734.204 845.034 746.754 840.356C736.991 854.248 718.135 859.272 701.761 854.757C685.387 850.241 670.315 833.867 669.054 816.924C676.987 827.603 690.879 836.552 703.694 840.356Z" fill="black"/>
</g>
<path d="M807.613 826.951C807.276 827.074 806.929 827.17 806.576 827.235L803.626 827.866C801.043 828.395 797.321 829.086 792.683 829.9C783.428 831.527 770.593 833.521 756.375 835.27C742.158 837.019 729.201 838.158 719.763 838.809C715.084 839.134 711.281 839.358 708.657 839.46L705.647 839.562C705.296 839.619 704.939 839.619 704.589 839.562C704.929 839.474 705.276 839.42 705.626 839.399L708.637 839.094L719.702 838.097C729.058 837.263 741.954 836.063 756.192 834.253C770.431 832.443 783.225 830.632 792.5 829.208L803.484 827.5L806.494 827.073C806.857 826.967 807.236 826.925 807.613 826.951Z" fill="white"/>
<g opacity="0.3">
<path d="M786.296 736.395C783.083 773.211 793.11 809.742 803.057 845.338C803.499 847.549 804.43 849.634 805.782 851.44C806.481 852.342 807.453 852.994 808.553 853.298C809.653 853.602 810.821 853.542 811.885 853.128C814.997 851.541 814.569 847.026 813.695 843.69L786.052 737.92" fill="black"/>
</g>
<path d="M271.278 773.07L313.077 978.304H675.95C677.87 978.304 679.712 977.541 681.07 976.183C682.428 974.825 683.191 972.984 683.191 971.063C683.191 969.143 682.428 967.301 681.07 965.943C679.712 964.585 677.87 963.822 675.95 963.822H602.887L564.139 772.948C563.776 771.17 562.815 769.571 561.416 768.416C560.017 767.261 558.264 766.621 556.45 766.602L279.129 763.571C277.947 763.556 276.777 763.806 275.704 764.303C274.632 764.8 273.684 765.531 272.931 766.442C272.178 767.353 271.638 768.421 271.352 769.568C271.066 770.715 271.041 771.912 271.278 773.07Z" fill="#E0E0E0"/>
<path d="M271.278 773.068C271.225 772.868 271.184 772.664 271.156 772.458C271.078 771.837 271.078 771.208 271.156 770.587C271.3 769.361 271.72 768.183 272.386 767.143C273.053 766.104 273.946 765.229 275.001 764.586C275.744 764.145 276.555 763.829 277.401 763.651C278.339 763.476 279.295 763.415 280.248 763.468H286.778L303.05 763.61L407.905 764.607L481.008 765.339L521.973 765.766L543.453 765.99L554.416 766.092C555.352 766.092 556.227 766.092 557.223 766.092C558.201 766.188 559.153 766.463 560.03 766.905C561.845 767.758 563.291 769.239 564.098 771.075C564.453 771.973 564.705 772.908 564.851 773.862L565.42 776.628C565.786 778.459 566.173 780.31 566.539 782.161C567.312 785.883 568.065 789.625 568.838 793.368L573.475 816.21C576.608 831.601 579.808 847.351 583.076 863.461C589.625 895.639 596.439 929.099 603.416 963.597L602.928 963.19H674.77C675.716 963.145 676.663 963.199 677.598 963.353C679.544 963.834 681.232 965.042 682.316 966.729C682.933 967.626 683.355 968.642 683.554 969.712C683.753 970.782 683.725 971.882 683.472 972.94C683.219 973.999 682.746 974.992 682.085 975.857C681.423 976.721 680.587 977.436 679.632 977.957C678.58 978.525 677.409 978.838 676.214 978.872H581.693H483.449H313.078H312.773V978.567C299.978 915.512 289.585 864.173 282.384 828.618C278.825 810.84 276.038 797.009 274.146 787.612C273.211 782.913 272.499 779.333 272.112 776.913C271.726 774.492 271.441 773.251 271.441 773.251C271.441 773.251 271.726 774.492 272.234 776.892L274.472 787.551C276.404 796.948 279.252 810.779 282.913 828.516L313.627 978.425L313.24 978.099H483.611H676.357C677.393 978.06 678.408 977.789 679.326 977.306C680.157 976.85 680.883 976.225 681.457 975.471C682.032 974.718 682.441 973.852 682.66 972.929C682.878 972.007 682.901 971.05 682.726 970.118C682.551 969.187 682.183 968.303 681.645 967.522C680.69 966.12 679.235 965.138 677.577 964.776C676.71 964.638 675.831 964.583 674.953 964.614H602.48V964.227C595.483 929.649 588.71 896.25 582.14 864.071C578.872 847.989 575.679 832.239 572.56 816.821L567.8 793.673C567.048 789.91 566.295 786.188 565.542 782.466C565.156 780.615 564.79 778.764 564.403 776.913L563.854 774.167C563.721 773.267 563.482 772.386 563.142 771.543C562.462 769.923 561.23 768.597 559.664 767.8C558.879 767.413 558.032 767.165 557.162 767.068C556.308 767.068 555.332 767.068 554.437 767.068L543.453 766.946L521.973 766.702L481.028 766.214L407.925 765.359L303.07 764.078L286.798 763.854L280.269 763.752C279.331 763.695 278.389 763.743 277.462 763.895C276.64 764.079 275.851 764.388 275.123 764.81C274.075 765.426 273.183 766.275 272.517 767.291C271.85 768.306 271.426 769.462 271.278 770.668C271.176 771.465 271.176 772.272 271.278 773.068Z" fill="#263238"/>
<path d="M438.476 867.063C438.476 869.432 437.773 871.748 436.457 873.719C435.141 875.689 433.27 877.224 431.08 878.131C428.891 879.038 426.482 879.275 424.158 878.813C421.834 878.351 419.7 877.21 418.024 875.534C416.349 873.859 415.208 871.724 414.745 869.4C414.283 867.076 414.52 864.667 415.427 862.478C416.334 860.289 417.869 858.418 419.84 857.101C421.81 855.785 424.126 855.082 426.496 855.082C429.673 855.082 432.72 856.344 434.967 858.591C437.214 860.838 438.476 863.885 438.476 867.063Z" fill="white"/>
<path d="M271.604 774.736C271.604 774.736 272.031 774.736 272.865 774.736H290.642L342.53 774.98L513.695 776.181L538.449 776.384H544.551C545.592 776.336 546.635 776.397 547.663 776.567C548.705 776.771 549.699 777.171 550.592 777.747C552.405 778.892 553.72 780.679 554.274 782.75C554.742 784.784 555.067 786.656 555.474 788.608C558.545 804.067 561.576 818.977 564.322 833.174C569.936 861.651 575.001 887.178 579.231 908.678L589.218 959.529C590.357 965.529 591.252 970.187 591.883 973.38C592.168 974.947 592.392 976.147 592.554 977.001C592.717 977.855 592.737 978.221 592.737 978.221C592.737 978.221 592.615 977.815 592.453 977.021C592.29 976.228 592.005 974.987 591.68 973.421C591.029 970.228 590.073 965.59 588.832 959.61C586.391 947.568 582.893 930.198 578.54 908.759L563.406 833.296C560.579 819.058 557.589 804.189 554.518 788.731C554.111 786.819 553.745 784.825 553.338 782.954C552.833 781.127 551.665 779.553 550.063 778.54C549.264 778.055 548.381 777.724 547.46 777.564C546.499 777.405 545.524 777.351 544.551 777.401H538.449L513.695 777.218L342.51 775.713L290.642 775.143L276.526 774.94H272.865L271.604 774.736Z" fill="#263238"/>
<path d="M756.213 463.043C756.631 482.02 753.027 500.87 745.636 518.353C738.246 535.837 727.238 551.557 713.335 564.48C706.921 545.971 700.528 527.461 694.154 508.951" fill="#263238"/>
<path d="M611.715 352.594C628.17 343.603 648.043 342.302 666.43 345.983C684.818 349.665 701.945 357.984 718.176 367.381C727.289 372.649 736.361 378.446 742.91 386.664C754.85 401.695 766.668 426.389 767.807 445.651C768.743 461.15 762.803 499.939 756.254 514.015C750.253 526.931 722.122 536.776 708.23 539.969L580.818 391.688C583.121 383.45 587.039 375.751 592.343 369.04C597.647 362.329 604.232 356.738 611.715 352.594Z" fill="#263238"/>
<path d="M589.748 372.568L620.258 367.117C603.559 406.883 599.023 497.804 589.483 539.868C578.215 523.596 552.077 473.762 553.481 453.971C554.884 434.179 553.562 369.212 589.748 372.568Z" fill="#263238"/>
<path d="M734.592 438.757C732.944 415.528 717.892 396.489 695.335 390.733L624.978 372.793C594.589 369.518 574.289 406.904 572.296 437.414C570.079 471.322 568.716 507.08 572.682 532.383C580.636 583.234 619.608 589.825 619.608 589.825C619.608 589.825 619.608 614.03 619.608 628.878L643.142 726.329L718.991 621.535L734.694 439.408C734.755 438.513 734.592 439.916 734.592 438.757Z" fill="#FFBE9D"/>
<path d="M587.571 475.833C587.554 477.534 588.201 479.174 589.375 480.405C590.548 481.636 592.156 482.36 593.856 482.424C594.686 482.49 595.521 482.39 596.312 482.129C597.103 481.867 597.833 481.451 598.461 480.903C599.088 480.355 599.599 479.688 599.965 478.939C600.33 478.191 600.542 477.377 600.588 476.545C600.606 474.848 599.961 473.211 598.792 471.98C597.622 470.75 596.02 470.024 594.324 469.955C593.492 469.886 592.655 469.984 591.861 470.244C591.068 470.504 590.335 470.92 589.706 471.468C589.076 472.016 588.563 472.685 588.196 473.435C587.829 474.184 587.617 475 587.571 475.833Z" fill="#263238"/>
<path d="M580.004 457.325C580.818 458.179 585.761 454.538 592.778 454.559C599.795 454.579 604.982 458.118 605.694 457.264C606.081 456.877 605.247 455.352 603.009 453.704C599.978 451.595 596.369 450.473 592.676 450.49C589.028 450.478 585.469 451.617 582.506 453.745C580.269 455.413 579.536 456.938 580.004 457.325Z" fill="#263238"/>
<path d="M648.755 475.836C648.738 477.537 649.385 479.177 650.559 480.408C651.733 481.639 653.34 482.363 655.04 482.426C655.872 482.496 656.71 482.397 657.503 482.135C658.297 481.874 659.029 481.456 659.658 480.905C660.286 480.355 660.797 479.684 661.16 478.932C661.524 478.179 661.732 477.362 661.773 476.528C661.79 474.83 661.145 473.193 659.976 471.963C658.806 470.733 657.204 470.006 655.508 469.937C654.674 469.868 653.836 469.967 653.041 470.228C652.247 470.489 651.513 470.907 650.883 471.458C650.253 472.008 649.74 472.679 649.374 473.431C649.009 474.183 648.798 475.001 648.755 475.836Z" fill="#263238"/>
<path d="M646.578 457.327C647.392 458.181 652.355 454.54 659.372 454.56C666.39 454.581 671.576 458.12 672.288 457.266C672.655 456.879 671.841 455.354 669.603 453.706C666.586 451.616 663.003 450.495 659.332 450.492C655.685 450.486 652.128 451.625 649.161 453.747C646.924 455.415 646.192 456.94 646.578 457.327Z" fill="#263238"/>
<path d="M624.753 512.447C624.753 512.06 620.421 511.287 613.342 510.413C611.553 510.23 609.864 509.864 609.559 508.643C609.411 506.79 609.837 504.937 610.78 503.334C612.475 499.009 614.251 494.459 616.109 489.686C623.513 470.281 628.862 454.314 628.089 454.029C627.316 453.744 620.665 469.224 613.261 488.608C611.471 493.381 609.769 497.951 608.156 502.317C607.022 504.479 606.684 506.97 607.2 509.355C607.458 509.989 607.858 510.555 608.369 511.01C608.881 511.465 609.489 511.796 610.149 511.979C611.134 512.263 612.154 512.406 613.18 512.406C620.197 512.813 624.611 512.854 624.753 512.447Z" fill="#263238"/>
<path d="M687.076 571.699C687.076 571.699 670.519 606.705 619.627 601.762V589.802C643.353 590.129 666.703 583.862 687.076 571.699Z" fill="#EB996E"/>
<path d="M648.796 431.962C649.488 433.874 656.485 432.979 664.723 433.996C672.96 435.013 679.612 437.271 680.71 435.562C681.198 434.728 680.039 432.938 677.354 431.087C673.79 428.803 669.731 427.408 665.516 427.019C661.306 426.504 657.033 426.992 653.047 428.443C650.017 429.562 648.491 431.047 648.796 431.962Z" fill="#263238"/>
<path d="M582.222 435.846C583.442 437.453 588.324 435.846 594.101 435.745C599.877 435.643 604.84 436.843 605.979 435.175C606.468 434.362 605.695 432.775 603.559 431.25C600.671 429.44 597.312 428.527 593.906 428.624C590.499 428.722 587.198 429.827 584.419 431.799C582.344 433.426 581.673 435.074 582.222 435.846Z" fill="#263238"/>
<path d="M586.106 390.936C589.218 383.288 597.619 378.732 605.857 378.285C614.095 377.837 622.129 380.99 629.329 385.119C659.616 402.632 675.197 444.92 705.118 463.043C712.481 467.498 722.061 463.409 728.326 469.308C734.591 475.207 738.639 484.645 735.181 492.516C739.468 487.193 742.969 481.281 745.575 474.962C747.853 468.515 748.138 461.05 744.72 455.131C742.137 450.635 737.561 447.218 736.32 442.194C735.201 437.76 736.95 433.143 736.767 428.586C736.249 423.956 734.654 419.512 732.109 415.609C720.373 394.882 704.243 376.129 683.476 364.453C669.917 356.625 654.482 352.638 638.828 352.92C623.085 353.273 607.988 359.255 596.276 369.782C589.584 376.027 582.547 382.475 586.106 390.936Z" fill="#263238"/>
<path d="M727.594 475.612C728.123 474.147 754.667 464.587 755.013 492.779C755.358 520.177 727.716 514.787 727.655 513.994C727.594 513.201 727.594 475.612 727.594 475.612Z" fill="#FFBE9D"/>
<path d="M736.015 503.542C736.137 503.542 736.482 503.867 737.296 504.234C738.446 504.691 739.727 504.691 740.876 504.234C743.744 503.156 746.144 498.518 746.226 493.596C746.282 491.243 745.809 488.907 744.842 486.761C744.572 485.909 744.099 485.135 743.466 484.505C742.832 483.875 742.055 483.407 741.201 483.141C740.656 482.998 740.077 483.053 739.568 483.295C739.058 483.537 738.65 483.95 738.415 484.463C738.049 485.236 738.232 485.785 738.069 485.826C737.906 485.866 737.479 485.378 737.703 484.239C737.852 483.566 738.225 482.964 738.761 482.53C739.128 482.241 739.549 482.027 739.999 481.902C740.45 481.776 740.92 481.741 741.385 481.798C742.514 482.008 743.569 482.506 744.449 483.244C745.33 483.981 746.004 484.934 746.409 486.009C747.606 488.362 748.2 490.976 748.138 493.616C748.015 499.149 745.249 504.335 741.283 505.515C740.553 505.737 739.783 505.791 739.03 505.675C738.277 505.559 737.559 505.275 736.93 504.844C736.055 504.213 735.913 503.603 736.015 503.542Z" fill="#EB996E"/>
<path d="M738.497 461.536C737.922 461.279 737.371 460.973 736.849 460.62C735.792 459.949 734.164 459.054 732.252 457.691C726.85 453.744 721.886 449.23 717.445 444.226C710.984 436.738 704.947 428.895 699.362 420.733C692.634 410.731 685.074 401.314 676.764 392.582C672.328 388.219 667.431 384.352 662.159 381.049C657.219 378.037 651.933 375.633 646.416 373.889C637.051 370.885 627.203 369.677 617.39 370.329C610.769 370.733 604.23 372.012 597.945 374.133C595.687 374.825 594.019 375.577 592.86 376.025C592.284 376.289 591.684 376.5 591.07 376.655C591.611 376.33 592.176 376.045 592.758 375.801C594.389 375.02 596.067 374.341 597.782 373.767C604.062 371.43 610.645 370.005 617.329 369.536C627.258 368.724 637.25 369.829 646.762 372.791C652.386 374.524 657.776 376.942 662.81 379.991C668.161 383.343 673.132 387.264 677.638 391.687C686.002 400.505 693.583 410.033 700.298 420.163C705.823 428.326 711.77 436.195 718.116 443.738C722.468 448.751 727.298 453.329 732.537 457.407C734.408 458.81 735.975 459.766 736.971 460.498C737.508 460.801 738.018 461.148 738.497 461.536Z" fill="#455A64"/>
<path d="M739.128 508.38C740.476 508.132 741.869 508.406 743.022 509.148C744.175 509.89 745.002 511.044 745.334 512.374C745.667 513.705 745.48 515.112 744.811 516.309C744.143 517.506 743.043 518.404 741.736 518.819C740.429 519.234 739.013 519.135 737.776 518.542C736.54 517.95 735.575 516.909 735.079 515.63C734.584 514.351 734.594 512.932 735.108 511.661C735.622 510.389 736.601 509.362 737.846 508.787" fill="white"/>
<path d="M737.846 508.786C736.67 509.734 735.811 511.018 735.384 512.467C735.19 513.214 735.184 513.998 735.369 514.747C735.554 515.497 735.922 516.188 736.442 516.759C737.053 517.48 737.864 518.005 738.773 518.267C739.681 518.529 740.647 518.517 741.548 518.232C742.45 517.947 743.247 517.403 743.841 516.667C744.434 515.931 744.797 515.036 744.883 514.095C744.966 513.335 744.862 512.567 744.578 511.857C744.294 511.148 743.84 510.519 743.256 510.026C742.094 509.095 740.674 508.541 739.188 508.44C739.188 508.44 739.595 508.155 740.469 508.135C741.71 508.145 742.912 508.567 743.887 509.335C744.648 509.899 745.251 510.651 745.636 511.517C746.021 512.383 746.175 513.334 746.083 514.278C746.006 515.457 745.575 516.587 744.846 517.518C744.117 518.449 743.124 519.138 741.998 519.497C740.871 519.855 739.662 519.865 738.529 519.525C737.397 519.185 736.393 518.512 735.649 517.593C735.032 516.877 734.611 516.014 734.426 515.088C734.241 514.161 734.298 513.203 734.591 512.305C734.914 511.119 735.632 510.079 736.625 509.355C737.337 508.806 737.825 508.725 737.846 508.786Z" fill="#263238"/>
<path d="M731.601 469.286C732.028 476.771 732.374 484.663 728.916 491.315C725.458 497.966 716.711 502.502 710.243 498.78C704.934 495.749 703.348 488.935 702.433 482.894C699.849 465.442 698.649 447.807 695.903 430.375L731.601 469.286Z" fill="#263238"/>
<path d="M592.86 377.918C592.86 378.06 595.28 377.45 599.654 377.308C605.86 377.213 612.025 378.34 617.797 380.623C621.779 382.165 625.584 384.129 629.147 386.481C633.231 389.223 637.144 392.212 640.863 395.431C649.481 402.72 657.185 411.025 663.807 420.165C667.285 425.047 670.377 430.071 673.713 434.729C676.881 439.258 680.567 443.401 684.697 447.075C691.801 453.096 699.566 458.289 707.844 462.554C714.861 466.256 720.719 468.86 724.767 470.69L729.445 472.724C729.984 472.988 730.55 473.193 731.134 473.335C730.653 472.986 730.135 472.692 729.588 472.46L725.011 470.202C720.943 468.168 715.268 465.483 708.373 461.68C700.245 457.303 692.619 452.051 685.632 446.017C681.601 442.382 678.01 438.286 674.933 433.813C671.658 429.216 668.587 424.192 665.068 419.25C658.374 410.012 650.558 401.642 641.799 394.333C638.001 391.104 634.007 388.115 629.839 385.383C626.177 383.031 622.268 381.088 618.184 379.586C612.268 377.344 605.95 376.36 599.633 376.698C597.928 376.797 596.235 377.035 594.568 377.409C593.978 377.5 593.403 377.671 592.86 377.918Z" fill="#455A64"/>
<path d="M732.354 452.364C733.094 452.999 733.906 453.546 734.774 453.991L741.73 458.059L744.049 459.381C744.965 459.936 745.994 460.276 747.06 460.378C747.707 460.448 748.359 460.298 748.911 459.951C749.205 459.744 749.449 459.475 749.625 459.161C749.801 458.848 749.904 458.499 749.928 458.14C749.867 456.883 749.42 455.675 748.646 454.683L740.51 441.787L739.412 442.784C744.782 446.74 751.363 448.703 758.023 448.336C758.875 448.33 759.719 448.186 760.525 447.909C760.975 447.762 761.39 447.521 761.74 447.202C762.091 446.883 762.37 446.493 762.559 446.058C762.715 445.594 762.754 445.099 762.672 444.616C762.591 444.134 762.391 443.679 762.091 443.292C761.639 442.669 761.12 442.096 760.545 441.583C756.928 438.086 753.789 434.126 751.209 429.806C748.934 425.748 746.949 421.534 745.27 417.195C745.398 418.456 745.692 419.694 746.144 420.877C747.168 424.169 748.531 427.346 750.212 430.356C752.712 434.841 755.835 438.95 759.488 442.56C760.505 443.536 761.522 444.594 761.135 445.509C760.749 446.424 759.244 446.811 757.799 446.811C754.666 446.969 751.53 446.59 748.524 445.692C745.53 444.813 742.704 443.438 740.164 441.624L736.91 439.224L739.086 442.621L747.222 455.415C747.857 456.181 748.26 457.112 748.382 458.1C748.382 458.873 747.69 459.32 746.816 459.259C745.057 458.913 743.384 458.221 741.893 457.225L734.733 453.564C733.985 453.081 733.187 452.679 732.354 452.364Z" fill="#455A64"/>
<path d="M651.338 525.345C650.827 523.261 649.6 521.422 647.871 520.151C646.143 518.879 644.022 518.256 641.88 518.389C640.315 518.581 638.823 519.159 637.537 520.072C636.252 520.984 635.214 522.202 634.517 523.616C633.835 525.039 633.445 526.584 633.372 528.16C633.299 529.735 633.543 531.31 634.09 532.79L634.252 533.441C635.713 535.015 637.624 536.1 639.725 536.547C641.825 536.995 644.013 536.784 645.989 535.943C647.923 535.012 649.496 533.469 650.464 531.553C651.431 529.636 651.738 527.454 651.338 525.345Z" fill="#EB996E"/>
<path d="M629.147 533.644C629.147 532.586 636.245 532.912 641.595 527.095C646.944 521.277 646.517 513.67 647.514 513.67C647.961 513.67 648.816 515.419 648.734 518.633C648.589 522.786 646.982 526.755 644.198 529.841C641.512 532.809 637.778 534.617 633.784 534.885C630.855 535.007 629.086 534.132 629.147 533.644Z" fill="#263238"/>
<path d="M868.268 964.697C868.113 964.718 867.956 964.718 867.8 964.697L866.377 964.84L860.946 965.287C856.227 965.674 849.392 966.121 840.931 966.63C824.028 967.626 800.657 968.664 774.825 969.091C748.992 969.518 725.56 969.274 708.637 968.826C700.175 968.623 693.321 968.379 688.602 968.175L683.15 967.891H688.602L708.657 968.236C725.58 968.481 748.972 968.603 774.804 968.236C800.636 967.87 823.987 966.894 840.89 966.08L860.925 965.084L866.377 964.84H867.78L868.268 964.697Z" fill="white"/>
</svg>
