<svg width="960" height="1080" viewBox="0 0 960 1080" fill="none" xmlns="http://www.w3.org/2000/svg">
<rect width="960" height="1080" fill="white"/>
<path d="M767.223 978.787C767.223 979.054 634.748 979.283 471.387 979.283C308.025 979.283 175.493 979.054 175.493 978.787C175.493 978.52 307.949 978.291 471.387 978.291C634.824 978.291 767.223 978.539 767.223 978.787Z" fill="#263238"/>
<path d="M705.602 228.179L695.778 231.689L691.561 218.85C683.816 195.175 659.129 182.603 636.446 190.596C613.763 198.59 601.687 224.554 609.432 248.23L613.648 261.069L603.785 264.598C600.024 266.057 596.97 268.909 595.258 272.561C593.545 276.214 593.306 280.386 594.59 284.21L621.928 367.751C622.496 369.644 623.438 371.404 624.699 372.925C625.96 374.447 627.514 375.7 629.269 376.609C631.023 377.519 632.943 378.066 634.913 378.219C636.884 378.372 638.865 378.127 640.739 377.499L742.556 341.08C746.366 339.624 749.464 336.747 751.197 333.054C752.929 329.36 753.162 325.139 751.847 321.278L724.489 237.737C723.907 235.849 722.951 234.098 721.677 232.588C720.403 231.078 718.838 229.84 717.075 228.948C715.313 228.056 713.388 227.528 711.417 227.396C709.446 227.264 707.468 227.53 705.602 228.179ZM627.995 241.533C625.906 235.377 626.281 228.652 629.041 222.766C631.801 216.881 636.731 212.291 642.799 209.96C645.795 208.935 648.967 208.524 652.126 208.751C655.285 208.979 658.365 209.84 661.184 211.284C664.002 212.728 666.501 214.725 668.531 217.156C670.561 219.586 672.08 222.401 672.999 225.432L677.196 238.271L632.192 254.373L627.995 241.533ZM685.228 315.669L692.21 336.998C692.338 337.425 692.297 337.886 692.094 338.284C691.892 338.682 691.544 338.986 691.123 339.134L681.336 342.626C680.946 342.734 680.53 342.687 680.174 342.495C679.819 342.303 679.551 341.98 679.428 341.595L672.388 320.362C668.507 320.151 664.782 318.758 661.714 316.372C658.645 313.985 656.379 310.718 655.219 307.008C653.559 302.103 653.862 296.746 656.063 292.059C658.264 287.372 662.193 283.719 667.028 281.863C669.414 281.048 671.941 280.721 674.457 280.903C676.973 281.085 679.426 281.771 681.671 282.921C683.916 284.071 685.906 285.661 687.523 287.597C689.141 289.533 690.352 291.774 691.084 294.188C692.312 297.956 692.413 302.001 691.376 305.827C690.34 309.653 688.209 313.093 685.247 315.726L685.228 315.669Z" fill="#FFBB15"/>
<path d="M695.339 231.46C695.339 231.727 677.12 238.576 654.456 246.722C631.791 254.868 613.305 261.412 613.21 261.221C613.114 261.03 631.429 254.124 654.112 245.959C676.795 237.794 695.244 231.212 695.339 231.46Z" fill="#263238"/>
<path d="M716.973 234.971C717.057 235.136 717.127 235.309 717.183 235.486C717.335 235.867 717.507 236.363 717.736 236.974C718.232 238.367 718.919 240.293 719.777 242.697L727.103 264.026C730.156 273.069 733.799 283.79 737.844 295.695C739.752 301.666 742.003 307.885 744.101 314.429C745.225 317.801 745.71 321.353 745.532 324.902C745.37 326.749 744.845 328.545 743.987 330.187C743.07 331.824 741.846 333.268 740.381 334.441C737.434 336.593 734.162 338.261 730.69 339.382L720.865 342.912L702.264 349.57L670.767 360.787L649.496 368.266L643.772 370.174L642.246 370.67C642.083 370.742 641.909 370.787 641.731 370.803C641.731 370.803 641.884 370.803 642.208 370.574L643.696 369.983L649.419 367.827L670.576 360.043L702.016 348.597L720.579 341.882L730.404 338.333C733.777 337.257 736.954 335.64 739.809 333.545C741.172 332.456 742.312 331.116 743.167 329.596C743.974 328.077 744.461 326.408 744.597 324.693C744.773 321.272 744.307 317.849 743.224 314.601C741.163 308.114 738.989 301.838 737.024 295.866C733.055 283.943 729.393 273.183 726.493 264.14C723.593 255.098 721.151 247.829 719.472 242.716C718.671 240.217 718.06 238.271 717.564 236.859L717.107 235.333C717.049 235.218 717.004 235.096 716.973 234.971Z" fill="#263238"/>
<path d="M663.25 208.662C663.25 208.662 662.239 208.166 660.369 207.403C657.705 206.379 654.886 205.812 652.033 205.724C647.803 205.579 643.594 206.374 639.708 208.052C634.984 210.141 630.944 213.52 628.052 217.8C625.141 222.069 623.579 227.114 623.569 232.28C623.609 236.515 624.251 240.723 625.477 244.776C626.469 248.248 627.499 251.015 628.186 252.941C628.591 253.92 628.922 254.928 629.178 255.956C628.636 255.041 628.182 254.076 627.823 253.075C627.041 251.167 625.915 248.458 624.809 244.967C623.451 240.871 622.711 236.595 622.615 232.28C622.564 226.918 624.162 221.67 627.194 217.247C630.186 212.81 634.391 209.327 639.308 207.212C643.314 205.526 647.655 204.782 651.994 205.038C654.91 205.186 657.774 205.865 660.446 207.041C661.16 207.37 661.849 207.753 662.506 208.185C662.778 208.305 663.029 208.466 663.25 208.662Z" fill="#263238"/>
<path d="M664.127 283.314C664.432 283.129 664.751 282.97 665.081 282.837C666.036 282.406 667.025 282.055 668.038 281.787C669.646 281.313 671.305 281.031 672.979 280.948C675.257 280.826 677.536 281.17 679.676 281.959C684.56 283.676 689.043 288.655 691.256 295.313C692.317 298.886 692.317 302.691 691.256 306.264C690.079 310.142 687.97 313.673 685.113 316.547L685.227 316.032C687.765 322.995 690.531 330.55 693.393 338.429L693.564 338.906L693.087 339.077L688.719 340.527L679.18 343.713L678.703 343.866L678.55 343.389C675.936 335.491 673.075 328.127 670.919 320.896L671.339 321.221C667.609 320.911 664.053 319.511 661.113 317.195C658.453 315.147 656.272 312.543 654.722 309.564C653.324 306.923 652.627 303.967 652.7 300.979C652.788 297.926 653.551 294.93 654.933 292.206C656.315 289.481 658.282 287.096 660.694 285.221C661.686 284.416 662.8 283.772 663.994 283.314C662.916 283.953 661.872 284.647 660.865 285.393C658.216 287.634 656.186 290.518 654.97 293.768C653.927 296.219 653.438 298.87 653.541 301.532C653.643 304.194 654.333 306.8 655.562 309.164C657.086 312.029 659.214 314.528 661.8 316.49C664.605 318.691 667.995 320.018 671.549 320.305H671.873L671.968 320.591C674.067 327.688 676.948 335.109 679.599 343.046L678.97 342.74L688.509 339.554L692.858 338.085L692.553 338.734C689.711 330.855 686.963 323.281 684.445 316.318V316.032L684.674 315.803C687.448 313.048 689.516 309.664 690.703 305.94C691.714 302.522 691.714 298.884 690.703 295.466C688.623 289.056 684.331 284.191 679.676 282.474C677.615 281.68 675.415 281.31 673.208 281.387C671.56 281.425 669.922 281.648 668.325 282.054C665.482 282.76 664.147 283.409 664.127 283.314Z" fill="#263238"/>
<path d="M605.159 834.159L414.592 833.281C403.587 833.221 393.056 828.795 385.312 820.976C377.568 813.156 373.244 802.583 373.289 791.578L375.312 313.856C375.334 308.404 376.431 303.009 378.539 297.981C380.648 292.953 383.727 288.39 387.6 284.552C391.473 280.714 396.064 277.678 401.111 275.615C406.159 273.553 411.563 272.506 417.015 272.534L607.562 273.411C618.567 273.467 629.1 277.888 636.848 285.704C644.596 293.519 648.925 304.091 648.884 315.096L646.862 792.799C646.84 798.253 645.743 803.649 643.635 808.679C641.527 813.71 638.449 818.276 634.576 822.116C630.704 825.957 626.113 828.997 621.065 831.063C616.018 833.13 610.613 834.182 605.159 834.159Z" fill="#455A64"/>
<path d="M607.276 289.837H570.342C569.137 289.859 567.948 290.119 566.843 290.6C565.738 291.082 564.739 291.777 563.903 292.645C563.067 293.513 562.41 294.538 561.97 295.66C561.529 296.782 561.314 297.98 561.337 299.185V305.881C561.36 307.085 561.145 308.282 560.704 309.403C560.264 310.524 559.607 311.547 558.77 312.413C557.934 313.28 556.935 313.973 555.83 314.453C554.725 314.933 553.537 315.19 552.333 315.21L480.334 314.886C477.898 314.821 475.588 313.792 473.91 312.025C472.232 310.258 471.325 307.897 471.386 305.461V298.765C471.448 296.332 470.543 293.975 468.869 292.208C467.196 290.442 464.89 289.411 462.458 289.341H449.466L417.13 289.188C409.438 289.142 402.042 292.146 396.561 297.542C391.079 302.937 387.959 310.285 387.884 317.976L385.976 784.271C385.958 788.086 386.692 791.868 388.136 795.4C389.58 798.932 391.706 802.145 394.391 804.855C397.077 807.565 400.27 809.72 403.789 811.197C407.307 812.673 411.082 813.442 414.898 813.459L605.063 814.337C608.881 814.355 612.665 813.62 616.199 812.175C619.734 810.73 622.949 808.603 625.661 805.916C628.373 803.228 630.529 800.033 632.007 796.512C633.484 792.992 634.253 789.214 634.271 785.396L636.179 319.102C636.224 311.389 633.205 303.974 627.786 298.486C622.366 292.998 614.989 289.887 607.276 289.837Z" fill="white"/>
<path d="M581.693 752.125L440.29 751.514C438.821 751.514 437.638 749.912 437.657 747.966L437.81 710.974C437.81 709.066 439.012 707.426 440.481 707.426L581.884 708.074C582.698 708.215 583.426 708.665 583.917 709.329C584.407 709.994 584.622 710.823 584.517 711.642L584.383 748.595C584.383 750.56 583.162 752.144 581.693 752.125Z" fill="#FFBB15"/>
<path d="M482.624 721.983C482.589 721.69 482.449 721.463 482.202 721.301C481.956 721.14 481.654 721.059 481.296 721.059C481.034 721.059 480.805 721.101 480.608 721.186C480.414 721.27 480.262 721.387 480.152 721.535C480.044 721.683 479.991 721.852 479.991 722.04C479.991 722.198 480.028 722.334 480.103 722.448C480.18 722.559 480.278 722.653 480.398 722.728C480.517 722.801 480.642 722.861 480.773 722.91C480.904 722.956 481.024 722.993 481.134 723.022L481.735 723.184C481.889 723.224 482.06 723.28 482.249 723.351C482.439 723.423 482.621 723.52 482.794 723.643C482.97 723.764 483.114 723.92 483.227 724.111C483.341 724.301 483.398 724.535 483.398 724.813C483.398 725.132 483.314 725.421 483.147 725.679C482.981 725.937 482.739 726.142 482.419 726.294C482.101 726.446 481.715 726.522 481.261 726.522C480.838 726.522 480.471 726.454 480.161 726.317C479.853 726.18 479.61 725.99 479.433 725.745C479.258 725.501 479.159 725.217 479.136 724.893H479.875C479.894 725.117 479.969 725.301 480.1 725.448C480.233 725.592 480.401 725.7 480.603 725.771C480.807 725.84 481.026 725.875 481.261 725.875C481.534 725.875 481.78 725.831 481.997 725.742C482.215 725.652 482.387 725.527 482.514 725.367C482.641 725.205 482.705 725.017 482.705 724.801C482.705 724.605 482.65 724.445 482.54 724.322C482.431 724.198 482.286 724.098 482.107 724.021C481.928 723.944 481.735 723.877 481.527 723.819L480.799 723.611C480.337 723.478 479.971 723.289 479.702 723.042C479.432 722.796 479.298 722.474 479.298 722.075C479.298 721.744 479.387 721.455 479.566 721.209C479.747 720.961 479.99 720.768 480.294 720.631C480.6 720.493 480.942 720.423 481.319 720.423C481.7 720.423 482.039 720.492 482.335 720.628C482.632 720.763 482.867 720.948 483.04 721.183C483.215 721.418 483.307 721.684 483.317 721.983H482.624ZM485.291 720.504V726.418H484.575V720.504H485.291ZM491.417 720.504V726.418H490.723L487.501 721.775H487.443V726.418H486.727V720.504H487.42L490.654 725.159H490.712V720.504H491.417ZM496.892 722.352C496.828 722.158 496.745 721.984 496.641 721.83C496.539 721.674 496.417 721.541 496.274 721.431C496.134 721.321 495.974 721.238 495.795 721.18C495.616 721.122 495.419 721.093 495.206 721.093C494.855 721.093 494.537 721.184 494.25 721.365C493.963 721.546 493.735 721.812 493.566 722.165C493.396 722.517 493.311 722.949 493.311 723.461C493.311 723.973 493.397 724.405 493.568 724.758C493.74 725.11 493.972 725.377 494.264 725.557C494.557 725.738 494.886 725.829 495.252 725.829C495.591 725.829 495.889 725.757 496.147 725.612C496.407 725.466 496.609 725.26 496.753 724.994C496.9 724.727 496.973 724.412 496.973 724.05L497.192 724.096H495.414V723.461H497.666V724.096C497.666 724.583 497.562 725.007 497.354 725.367C497.148 725.727 496.863 726.006 496.499 726.204C496.137 726.401 495.722 726.499 495.252 726.499C494.728 726.499 494.268 726.376 493.872 726.129C493.477 725.883 493.169 725.532 492.948 725.078C492.728 724.624 492.618 724.085 492.618 723.461C492.618 722.993 492.681 722.573 492.806 722.199C492.933 721.824 493.112 721.504 493.343 721.241C493.574 720.977 493.848 720.775 494.163 720.634C494.479 720.494 494.826 720.423 495.206 720.423C495.518 720.423 495.808 720.471 496.078 720.565C496.349 720.657 496.591 720.789 496.802 720.961C497.016 721.13 497.194 721.333 497.337 721.57C497.479 721.805 497.577 722.065 497.631 722.352H496.892ZM505.06 720.504H505.776V724.42C505.776 724.824 505.681 725.185 505.49 725.503C505.302 725.818 505.035 726.068 504.69 726.25C504.346 726.431 503.942 726.522 503.478 726.522C503.014 726.522 502.61 726.431 502.265 726.25C501.92 726.068 501.653 725.818 501.462 725.503C501.274 725.185 501.179 724.824 501.179 724.42V720.504H501.895V724.362C501.895 724.651 501.959 724.908 502.086 725.133C502.213 725.356 502.394 725.532 502.629 725.661C502.866 725.788 503.149 725.852 503.478 725.852C503.807 725.852 504.09 725.788 504.327 725.661C504.563 725.532 504.744 725.356 504.87 725.133C504.997 724.908 505.06 724.651 505.06 724.362V720.504ZM507.206 726.418V720.504H509.204C509.668 720.504 510.048 720.588 510.342 720.756C510.639 720.921 510.858 721.145 511 721.428C511.143 721.711 511.214 722.027 511.214 722.375C511.214 722.724 511.143 723.041 511 723.325C510.86 723.61 510.642 723.837 510.348 724.007C510.053 724.174 509.676 724.258 509.216 724.258H507.784V723.623H509.193C509.51 723.623 509.766 723.568 509.958 723.458C510.151 723.349 510.29 723.2 510.377 723.014C510.465 722.825 510.51 722.612 510.51 722.375C510.51 722.139 510.465 721.927 510.377 721.74C510.29 721.553 510.15 721.407 509.955 721.301C509.761 721.193 509.503 721.14 509.181 721.14H507.922V726.418H507.206Z" fill="#E8E8E3"/>
<path d="M468.494 426.91L419.427 426.688L419.386 435.692L468.453 435.915L468.494 426.91Z" fill="#FFBB15"/>
<path opacity="0.1" d="M468.494 426.91L419.427 426.688L419.386 435.692L468.453 435.915L468.494 426.91Z" fill="black"/>
<path d="M612.332 482.197C612.717 482.158 613.096 482.068 613.457 481.93C613.985 481.724 614.444 481.372 614.782 480.917C615.119 480.461 615.321 479.92 615.365 479.354C615.365 476.321 615.365 471.895 615.365 466.21C615.365 463.367 615.365 460.181 615.365 456.671C615.365 455.813 615.365 454.916 615.365 454.019C615.489 453.149 615.3 452.263 614.831 451.52C614.568 451.164 614.227 450.873 613.833 450.671C613.439 450.469 613.003 450.362 612.561 450.357H609.585H582.017L422.452 449.765C422.044 449.758 421.64 449.85 421.275 450.033C420.909 450.215 420.593 450.483 420.354 450.814C419.893 451.561 419.717 452.448 419.858 453.314C419.858 455.221 419.858 457.129 419.858 459.037C419.858 462.852 419.858 466.668 419.858 470.483C419.858 472.391 419.858 474.299 419.858 476.207C419.779 477.095 419.779 477.989 419.858 478.878C419.958 479.258 420.144 479.611 420.402 479.909C420.66 480.207 420.983 480.441 421.346 480.595C421.722 480.744 422.124 480.816 422.529 480.804H432.239L474.611 481.033L546.342 481.472L594.704 481.854L607.848 482.006H611.263C612.046 482.006 612.427 482.006 612.427 482.006H611.263H607.848H594.704H546.342L474.611 481.777L432.239 481.606H422.529C421.994 481.627 421.461 481.536 420.964 481.339C420.462 481.124 420.015 480.798 419.658 480.385C419.301 479.971 419.043 479.482 418.904 478.954C418.794 478.453 418.755 477.939 418.789 477.428V476.016C418.789 474.108 418.789 472.2 418.789 470.293C418.789 466.477 418.789 462.662 418.789 458.846C418.789 456.938 418.789 455.031 418.789 453.123C418.753 452.615 418.753 452.105 418.789 451.597C418.861 451.035 419.078 450.503 419.419 450.051C419.748 449.591 420.184 449.217 420.689 448.961C421.194 448.705 421.753 448.575 422.319 448.582L581.884 449.46L609.451 449.651H612.427C612.951 449.651 613.468 449.778 613.933 450.02C614.398 450.263 614.797 450.614 615.098 451.043C615.636 451.873 615.853 452.87 615.708 453.848C615.708 454.744 615.708 455.641 615.708 456.499C615.708 459.972 615.708 463.158 615.708 466.038C615.708 471.762 615.575 476.149 615.537 479.202C615.49 479.789 615.277 480.35 614.922 480.82C614.567 481.29 614.085 481.648 613.534 481.854C613.173 482.077 612.756 482.196 612.332 482.197Z" fill="#E0E0E0"/>
<path d="M523.907 459.342H434.166V467.755H523.907V459.342Z" fill="#FFBB15"/>
<path opacity="0.2" d="M523.907 459.342H434.166V467.755H523.907V459.342Z" fill="white"/>
<path d="M468.16 509.057L419.093 508.834L419.052 517.839L468.119 518.061L468.16 509.057Z" fill="#FFBB15"/>
<path opacity="0.1" d="M468.16 509.057L419.093 508.834L419.052 517.839L468.119 518.061L468.16 509.057Z" fill="black"/>
<path d="M611.091 564.344C611.477 564.297 611.859 564.227 612.236 564.134C612.769 563.965 613.259 563.683 613.674 563.308C614.089 562.933 614.418 562.473 614.64 561.96C614.94 561.189 615.058 560.36 614.983 559.537C614.983 558.621 614.983 557.629 614.983 556.522C614.983 554.309 614.983 551.791 614.983 548.891V536.777C615.074 535.9 614.88 535.017 614.43 534.259C613.959 533.481 613.219 532.904 612.35 532.637C611.4 532.468 610.433 532.417 609.47 532.485H582.017L423.005 531.893C422.15 531.895 421.325 532.208 420.682 532.773C420.04 533.338 419.625 534.117 419.514 534.965C419.514 536.777 419.514 538.78 419.514 540.688C419.514 544.504 419.514 548.319 419.514 552.135C419.514 554.042 419.514 555.95 419.514 557.858C419.443 558.75 419.482 559.647 419.629 560.529C419.867 561.302 420.357 561.974 421.021 562.437C421.726 562.884 422.554 563.097 423.387 563.047H426.039H431.552L473.771 563.257L545.255 563.696L593.445 564.077L606.551 564.23H593.445H545.255L473.733 564.154L431.514 564.001H423.215C422.183 564.062 421.159 563.788 420.296 563.219C419.428 562.617 418.795 561.735 418.503 560.72C418.332 559.75 418.281 558.763 418.35 557.782C418.35 555.874 418.35 553.966 418.35 552.058C418.35 548.243 418.35 544.427 418.35 540.612C418.35 538.704 418.35 536.796 418.35 534.889C418.49 533.798 419.022 532.795 419.847 532.068C420.672 531.341 421.734 530.94 422.834 530.939L581.845 531.817L609.298 532.027C610.32 531.964 611.346 532.035 612.35 532.237C613.342 532.561 614.178 533.24 614.697 534.144C615.191 534.985 615.404 535.96 615.307 536.93C615.307 537.826 615.307 538.704 615.307 539.582C615.307 543.035 615.307 546.202 615.307 549.12C615.307 552.039 615.307 554.5 615.307 556.751C615.307 557.839 615.307 558.85 615.307 559.785C615.377 560.638 615.239 561.495 614.907 562.284C614.659 562.81 614.301 563.277 613.857 563.652C613.412 564.028 612.892 564.303 612.331 564.459C611.915 564.493 611.495 564.454 611.091 564.344Z" fill="#E0E0E0"/>
<path d="M467.79 594.77L418.723 594.547L418.682 603.551L467.749 603.774L467.79 594.77Z" fill="#FFBB15"/>
<path opacity="0.1" d="M467.79 594.77L418.723 594.547L418.682 603.551L467.749 603.774L467.79 594.77Z" fill="black"/>
<path d="M610.71 650.022C611.096 649.976 611.478 649.906 611.855 649.812C612.385 649.644 612.874 649.364 613.288 648.993C613.703 648.621 614.033 648.165 614.259 647.656C614.558 646.886 614.675 646.057 614.602 645.234C614.602 644.299 614.602 643.326 614.602 642.2C614.602 640.006 614.602 637.469 614.602 634.569V622.455C614.693 621.578 614.499 620.695 614.049 619.937C613.567 619.173 612.83 618.606 611.969 618.334C611.02 618.158 610.052 618.1 609.089 618.162H581.636L422.624 617.571C421.769 617.573 420.943 617.886 420.301 618.451C419.659 619.016 419.244 619.794 419.133 620.643C419.133 622.55 419.133 624.458 419.133 626.366C419.133 630.181 419.133 633.997 419.133 637.812C419.133 639.72 419.133 641.628 419.133 643.536C419.062 644.421 419.1 645.312 419.247 646.187C419.476 646.966 419.968 647.64 420.64 648.095C421.34 648.552 422.172 648.767 423.006 648.706H431.304L473.523 648.935L545.007 649.373L593.197 649.755L606.303 649.908H593.197H545.007L473.523 649.698L431.304 649.526H423.006C421.973 649.596 420.946 649.321 420.087 648.744C419.219 648.142 418.585 647.26 418.294 646.245C418.123 645.275 418.071 644.289 418.141 643.307C418.141 641.399 418.141 639.491 418.141 637.583C418.141 633.768 418.141 629.952 418.141 626.137C418.141 624.229 418.141 622.321 418.141 620.318C418.276 619.229 418.804 618.226 419.626 617.499C420.448 616.772 421.508 616.37 422.605 616.369L581.617 617.247L609.07 617.457C610.092 617.394 611.118 617.464 612.122 617.666C613.113 617.99 613.949 618.67 614.468 619.574C614.962 620.414 615.176 621.39 615.079 622.359C615.079 623.256 615.079 624.153 615.079 625.011C615.079 628.464 615.079 631.631 615.079 634.55C615.079 637.469 615.079 639.93 615.079 642.181C615.079 643.269 615.079 644.28 615.079 645.214C615.152 646.068 615.015 646.926 614.678 647.714C614.431 648.24 614.072 648.707 613.628 649.082C613.184 649.457 612.663 649.733 612.103 649.888C611.656 650.042 611.178 650.087 610.71 650.022Z" fill="#E0E0E0"/>
<path d="M521.991 543.868L432.251 543.461L432.213 551.874L521.953 552.281L521.991 543.868Z" fill="#FFBB15"/>
<path opacity="0.2" d="M521.991 543.868L432.251 543.461L432.213 551.874L521.953 552.281L521.991 543.868Z" fill="white"/>
<path d="M440.367 634.454C440.31 635.221 440.03 635.955 439.56 636.565C439.091 637.174 438.453 637.633 437.725 637.883C436.997 638.133 436.212 638.164 435.467 637.972C434.722 637.78 434.049 637.374 433.533 636.803C433.017 636.233 432.679 635.523 432.563 634.763C432.446 634.002 432.555 633.224 432.876 632.525C433.198 631.826 433.717 631.236 434.37 630.83C435.024 630.423 435.782 630.217 436.551 630.238C437.614 630.297 438.611 630.773 439.325 631.562C440.039 632.351 440.413 633.39 440.367 634.454Z" fill="#FFBB15"/>
<path d="M452.519 634.512C452.556 635.05 452.483 635.59 452.303 636.098C452.123 636.606 451.84 637.072 451.472 637.466C451.105 637.861 450.66 638.175 450.165 638.39C449.671 638.605 449.138 638.716 448.598 638.716C448.059 638.716 447.526 638.605 447.031 638.39C446.537 638.175 446.092 637.861 445.724 637.466C445.357 637.072 445.074 636.606 444.894 636.098C444.714 635.59 444.64 635.05 444.678 634.512C444.64 633.974 444.714 633.435 444.894 632.926C445.074 632.418 445.357 631.952 445.724 631.558C446.092 631.164 446.537 630.849 447.031 630.635C447.526 630.42 448.059 630.309 448.598 630.309C449.138 630.309 449.671 630.42 450.165 630.635C450.66 630.849 451.105 631.164 451.472 631.558C451.84 631.952 452.123 632.418 452.303 632.926C452.483 633.435 452.556 633.974 452.519 634.512Z" fill="#FFBB15"/>
<path d="M464.69 634.569C464.634 635.337 464.354 636.07 463.884 636.68C463.414 637.29 462.776 637.748 462.049 637.998C461.321 638.248 460.536 638.279 459.791 638.087C459.046 637.895 458.373 637.489 457.857 636.919C457.341 636.348 457.003 635.639 456.886 634.878C456.77 634.117 456.879 633.339 457.2 632.64C457.521 631.941 458.041 631.352 458.694 630.945C459.347 630.538 460.106 630.333 460.875 630.353C461.936 630.417 462.93 630.894 463.643 631.682C464.356 632.471 464.732 633.507 464.69 634.569Z" fill="#FFBB15"/>
<path d="M476.843 634.626C476.786 635.393 476.506 636.127 476.036 636.737C475.567 637.346 474.929 637.804 474.201 638.055C473.473 638.305 472.688 638.336 471.943 638.144C471.198 637.952 470.526 637.546 470.009 636.975C469.493 636.405 469.155 635.695 469.039 634.935C468.922 634.174 469.031 633.396 469.352 632.697C469.674 631.998 470.193 631.408 470.846 631.002C471.5 630.595 472.258 630.389 473.027 630.41C474.088 630.474 475.082 630.951 475.795 631.739C476.508 632.527 476.884 633.564 476.843 634.626Z" fill="#FFBB15"/>
<path d="M488.995 634.665C488.943 635.434 488.665 636.17 488.198 636.782C487.73 637.394 487.093 637.856 486.366 638.109C485.638 638.362 484.852 638.395 484.106 638.205C483.359 638.016 482.685 637.61 482.167 637.04C481.648 636.47 481.309 635.761 481.191 634.999C481.073 634.238 481.181 633.459 481.502 632.759C481.823 632.059 482.343 631.468 482.997 631.061C483.651 630.654 484.41 630.448 485.18 630.468C486.237 630.532 487.228 631.007 487.941 631.791C488.654 632.575 489.032 633.606 488.995 634.665Z" fill="#FFBB15"/>
<path d="M501.166 634.722C501.114 635.487 500.84 636.22 500.377 636.83C499.914 637.441 499.282 637.903 498.56 638.159C497.838 638.415 497.056 638.455 496.312 638.273C495.568 638.091 494.893 637.695 494.37 637.135C493.848 636.574 493.501 635.873 493.372 635.117C493.242 634.362 493.337 633.585 493.644 632.883C493.95 632.181 494.456 631.583 495.097 631.164C495.739 630.746 496.489 630.523 497.255 630.525C498.33 630.565 499.345 631.029 500.078 631.816C500.811 632.603 501.202 633.648 501.166 634.722Z" fill="#FFBB15"/>
<path d="M513.319 634.78C513.356 635.318 513.283 635.857 513.103 636.366C512.923 636.874 512.64 637.34 512.272 637.734C511.905 638.128 511.46 638.443 510.965 638.658C510.471 638.873 509.937 638.983 509.398 638.983C508.859 638.983 508.326 638.873 507.831 638.658C507.337 638.443 506.892 638.128 506.524 637.734C506.156 637.34 505.874 636.874 505.694 636.366C505.514 635.857 505.44 635.318 505.478 634.78C505.44 634.242 505.514 633.702 505.694 633.194C505.874 632.686 506.156 632.22 506.524 631.826C506.892 631.431 507.337 631.117 507.831 630.902C508.326 630.687 508.859 630.576 509.398 630.576C509.937 630.576 510.471 630.687 510.965 630.902C511.46 631.117 511.905 631.431 512.272 631.826C512.64 632.22 512.923 632.686 513.103 633.194C513.283 633.702 513.356 634.242 513.319 634.78Z" fill="#FFBB15"/>
<path d="M525.471 634.836C525.419 635.6 525.145 636.333 524.682 636.944C524.219 637.554 523.587 638.016 522.865 638.272C522.143 638.529 521.362 638.568 520.617 638.386C519.873 638.204 519.198 637.808 518.675 637.248C518.153 636.687 517.806 635.986 517.677 635.231C517.548 634.475 517.642 633.699 517.949 632.996C518.255 632.294 518.761 631.697 519.402 631.278C520.044 630.859 520.794 630.637 521.561 630.639C522.635 630.678 523.65 631.143 524.383 631.929C525.116 632.716 525.508 633.761 525.471 634.836Z" fill="#FFBB15"/>
<path d="M537.624 634.894C537.571 635.662 537.294 636.398 536.826 637.011C536.359 637.623 535.722 638.084 534.994 638.337C534.266 638.59 533.481 638.624 532.734 638.434C531.987 638.244 531.313 637.839 530.795 637.269C530.277 636.699 529.938 635.989 529.819 635.228C529.701 634.467 529.81 633.688 530.131 632.987C530.452 632.287 530.971 631.697 531.625 631.289C532.279 630.882 533.038 630.676 533.808 630.697C534.866 630.761 535.857 631.235 536.569 632.019C537.282 632.803 537.66 633.835 537.624 634.894Z" fill="#FFBB15"/>
<g opacity="0.2">
<path d="M440.367 634.454C440.31 635.221 440.03 635.955 439.56 636.565C439.091 637.174 438.453 637.633 437.725 637.883C436.997 638.133 436.212 638.164 435.467 637.972C434.722 637.78 434.049 637.374 433.533 636.803C433.017 636.233 432.679 635.523 432.563 634.763C432.446 634.002 432.555 633.224 432.876 632.525C433.198 631.826 433.717 631.236 434.37 630.83C435.024 630.423 435.782 630.217 436.551 630.238C437.614 630.297 438.611 630.773 439.325 631.562C440.039 632.351 440.413 633.39 440.367 634.454Z" fill="white"/>
<path d="M452.519 634.51C452.556 635.048 452.483 635.588 452.303 636.096C452.123 636.604 451.84 637.07 451.472 637.464C451.105 637.859 450.66 638.173 450.165 638.388C449.671 638.603 449.138 638.714 448.598 638.714C448.059 638.714 447.526 638.603 447.031 638.388C446.537 638.173 446.092 637.859 445.724 637.464C445.357 637.07 445.074 636.604 444.894 636.096C444.714 635.588 444.64 635.048 444.678 634.51C444.64 633.972 444.714 633.433 444.894 632.924C445.074 632.416 445.357 631.951 445.724 631.556C446.092 631.162 446.537 630.848 447.031 630.633C447.526 630.418 448.059 630.307 448.598 630.307C449.138 630.307 449.671 630.418 450.165 630.633C450.66 630.848 451.105 631.162 451.472 631.556C451.84 631.951 452.123 632.416 452.303 632.924C452.483 633.433 452.556 633.972 452.519 634.51Z" fill="white"/>
<path d="M464.69 634.567C464.634 635.335 464.354 636.069 463.884 636.678C463.414 637.288 462.776 637.746 462.049 637.996C461.321 638.246 460.536 638.277 459.791 638.085C459.046 637.894 458.373 637.487 457.857 636.917C457.341 636.346 457.003 635.637 456.886 634.876C456.77 634.115 456.879 633.337 457.2 632.638C457.521 631.939 458.041 631.35 458.694 630.943C459.347 630.537 460.106 630.331 460.875 630.351C461.936 630.415 462.93 630.892 463.643 631.681C464.356 632.469 464.732 633.505 464.69 634.567Z" fill="white"/>
<path d="M476.843 634.626C476.786 635.393 476.506 636.127 476.036 636.737C475.567 637.346 474.929 637.804 474.201 638.055C473.473 638.305 472.688 638.336 471.943 638.144C471.198 637.952 470.526 637.546 470.009 636.975C469.493 636.405 469.155 635.695 469.039 634.935C468.922 634.174 469.031 633.396 469.352 632.697C469.674 631.998 470.193 631.408 470.846 631.002C471.5 630.595 472.258 630.389 473.027 630.41C474.088 630.474 475.082 630.951 475.795 631.739C476.508 632.527 476.884 633.564 476.843 634.626Z" fill="white"/>
<path d="M488.995 634.663C488.943 635.432 488.665 636.168 488.198 636.78C487.73 637.392 487.093 637.854 486.366 638.107C485.638 638.36 484.852 638.393 484.106 638.203C483.359 638.014 482.685 637.608 482.167 637.038C481.648 636.468 481.309 635.759 481.191 634.998C481.073 634.236 481.181 633.457 481.502 632.757C481.823 632.057 482.343 631.466 482.997 631.059C483.651 630.652 484.41 630.446 485.18 630.466C486.237 630.53 487.228 631.005 487.941 631.789C488.654 632.573 489.032 633.604 488.995 634.663Z" fill="white"/>
<path d="M501.167 634.721C501.115 635.485 500.84 636.218 500.377 636.828C499.914 637.439 499.283 637.901 498.56 638.157C497.838 638.413 497.057 638.453 496.312 638.271C495.568 638.089 494.893 637.693 494.371 637.133C493.848 636.572 493.501 635.871 493.372 635.115C493.243 634.36 493.338 633.583 493.644 632.881C493.951 632.179 494.456 631.581 495.098 631.163C495.739 630.744 496.49 630.522 497.256 630.523C498.33 630.563 499.345 631.027 500.078 631.814C500.812 632.601 501.203 633.646 501.167 634.721Z" fill="white"/>
<path d="M513.319 634.778C513.357 635.316 513.283 635.855 513.103 636.364C512.923 636.872 512.64 637.338 512.273 637.732C511.905 638.126 511.46 638.441 510.966 638.656C510.471 638.871 509.938 638.981 509.399 638.981C508.86 638.981 508.326 638.871 507.832 638.656C507.337 638.441 506.892 638.126 506.525 637.732C506.157 637.338 505.874 636.872 505.694 636.364C505.514 635.855 505.441 635.316 505.478 634.778C505.441 634.24 505.514 633.7 505.694 633.192C505.874 632.684 506.157 632.218 506.525 631.824C506.892 631.429 507.337 631.115 507.832 630.9C508.326 630.685 508.86 630.574 509.399 630.574C509.938 630.574 510.471 630.685 510.966 630.9C511.46 631.115 511.905 631.429 512.273 631.824C512.64 632.218 512.923 632.684 513.103 633.192C513.283 633.7 513.357 634.24 513.319 634.778Z" fill="white"/>
<path d="M525.471 634.836C525.419 635.6 525.145 636.333 524.682 636.944C524.219 637.554 523.587 638.016 522.865 638.272C522.143 638.529 521.362 638.568 520.617 638.386C519.873 638.204 519.198 637.808 518.675 637.248C518.153 636.687 517.806 635.986 517.677 635.231C517.548 634.475 517.642 633.699 517.949 632.996C518.255 632.294 518.761 631.697 519.402 631.278C520.044 630.859 520.794 630.637 521.561 630.639C522.635 630.678 523.65 631.143 524.383 631.929C525.116 632.716 525.508 633.761 525.471 634.836Z" fill="white"/>
<path d="M537.624 634.894C537.572 635.662 537.294 636.398 536.827 637.011C536.359 637.623 535.722 638.084 534.994 638.337C534.267 638.59 533.481 638.624 532.734 638.434C531.988 638.244 531.314 637.839 530.795 637.269C530.277 636.699 529.938 635.989 529.82 635.228C529.702 634.467 529.81 633.688 530.131 632.987C530.452 632.287 530.972 631.697 531.626 631.289C532.28 630.882 533.039 630.676 533.809 630.697C534.866 630.761 535.857 631.235 536.57 632.019C537.283 632.803 537.661 633.835 537.624 634.894Z" fill="white"/>
</g>
<path d="M520.358 359.489C521.684 358.905 522.808 357.945 523.592 356.727C524.375 355.509 524.783 354.088 524.765 352.64C524.815 351.699 524.672 350.757 524.346 349.873C524.02 348.989 523.517 348.18 522.868 347.496C522.219 346.813 521.438 346.268 520.572 345.896C519.706 345.524 518.773 345.332 517.831 345.332C516.888 345.332 515.955 345.524 515.089 345.896C514.223 346.268 513.442 346.813 512.793 347.496C512.145 348.18 511.642 348.989 511.316 349.873C510.989 350.757 510.847 351.699 510.896 352.64C510.867 354.103 511.272 355.541 512.06 356.773C512.847 358.006 513.983 358.977 515.322 359.565C504.639 361.168 505.116 372.767 505.116 372.767L530.374 372.881C530.374 372.881 530.966 361.072 520.358 359.489Z" fill="#FFBB15"/>
<path opacity="0.1" d="M520.358 359.489C521.684 358.905 522.808 357.945 523.592 356.727C524.375 355.509 524.783 354.088 524.765 352.64C524.815 351.699 524.672 350.757 524.346 349.873C524.02 348.989 523.517 348.18 522.868 347.496C522.219 346.813 521.438 346.268 520.572 345.896C519.706 345.524 518.773 345.332 517.831 345.332C516.888 345.332 515.955 345.524 515.089 345.896C514.223 346.268 513.442 346.813 512.793 347.496C512.145 348.18 511.642 348.989 511.316 349.873C510.989 350.757 510.847 351.699 510.896 352.64C510.867 354.103 511.272 355.541 512.06 356.773C512.847 358.006 513.983 358.977 515.322 359.565C504.639 361.168 505.116 372.767 505.116 372.767L530.374 372.881C530.374 372.881 530.966 361.072 520.358 359.489Z" fill="black"/>
<path d="M561.403 380.362L471.377 379.953L471.328 390.713L561.354 391.121L561.403 380.362Z" fill="#FFBB15"/>
<path opacity="0.2" d="M561.403 380.362L471.377 379.953L471.328 390.713L561.354 391.121L561.403 380.362Z" fill="white"/>
<path d="M230.437 436.125H229.54L226.946 436.316C225.541 436.4 224.145 436.585 222.768 436.869C221.875 436.994 220.99 437.166 220.116 437.384L217.159 438.205C212.126 439.749 207.377 442.1 203.099 445.168C197.446 449.271 192.725 454.524 189.248 460.583C187.204 464.075 185.578 467.795 184.402 471.667C183.167 475.875 182.456 480.219 182.285 484.601C182.171 486.903 182.209 489.21 182.399 491.507C182.399 492.671 182.724 493.835 182.876 495.018C183.005 496.21 183.228 497.39 183.544 498.547C185.259 506.202 188.74 513.351 193.709 519.422C198.677 525.494 204.996 530.32 212.16 533.516C217.346 535.754 222.904 537.003 228.548 537.198C234.378 537.519 240.213 536.682 245.718 534.737L247.397 534.108H247.626L247.816 534.222L271.873 546.432L271.167 547.042C268.592 539.068 266.112 531.341 263.708 523.92V523.634L263.918 523.424C269.754 517.546 274.086 510.348 276.547 502.439C278.777 495.208 279.427 487.584 278.455 480.08C277.59 473.411 275.446 466.972 272.14 461.117C269.291 456.087 265.615 451.572 261.266 447.762C257.678 444.747 253.708 442.22 249.457 440.246C246.241 438.859 242.891 437.804 239.46 437.098L235.645 436.469L232.879 436.259L231.2 436.144H230.627C230.818 436.123 231.01 436.123 231.2 436.144H232.898L235.664 436.259L239.479 436.812C242.953 437.466 246.348 438.483 249.61 439.845C253.933 441.796 257.976 444.317 261.629 447.343C266.057 451.136 269.811 455.651 272.732 460.697C276.131 466.616 278.341 473.142 279.237 479.908C280.29 487.528 279.685 495.285 277.463 502.649C274.986 510.722 270.586 518.074 264.643 524.073L264.757 523.577C267.161 530.998 269.66 538.724 272.255 546.68L272.617 547.844L271.53 547.29L247.473 535.1H247.893L246.176 535.729C240.565 537.704 234.621 538.559 228.682 538.248C222.916 538.028 217.241 536.734 211.951 534.432C201.858 530.11 193.461 522.597 188.046 513.046C185.555 508.635 183.735 503.877 182.647 498.929C182.349 497.742 182.126 496.538 181.98 495.323C181.827 494.121 181.579 492.938 181.522 491.755C181.005 484.967 181.723 478.142 183.639 471.609C184.844 467.684 186.516 463.918 188.619 460.392C192.179 454.279 196.997 448.992 202.755 444.882C207.104 441.806 211.933 439.473 217.044 437.976L220.039 437.213C220.921 437.008 221.812 436.849 222.71 436.736C224.102 436.478 225.512 436.325 226.926 436.278L229.54 436.182C229.837 436.142 230.137 436.123 230.437 436.125Z" fill="#FFBB15"/>
<path d="M241.311 480.614H237.781L230.15 469.893V462.853C230.15 462.853 224.694 462.51 225.343 471.724C225.992 480.939 225.343 478.592 225.343 478.592C225.343 478.592 213.763 478.592 212.809 479.642C211.855 480.691 211.798 491.87 211.664 498.109C211.591 499.612 212.023 501.098 212.89 502.328C213.758 503.559 215.012 504.464 216.453 504.9C216.857 505.012 217.274 505.07 217.693 505.072C220.593 505.072 235.34 502.725 235.34 502.725H241.425L241.311 480.614Z" fill="#FFBB15"/>
<path d="M251.403 478.727L249.228 502.841H243.2V479.223L251.403 478.727Z" fill="#FFBB15"/>
<path d="M323.306 969.65V953.339L294.06 953.129L293.812 977.796L295.624 977.93C303.694 978.445 336.679 979.208 342.097 977.529C348.126 975.66 323.306 969.65 323.306 969.65Z" fill="#FFBB15"/>
<path d="M342.785 976.004C342.785 976.271 331.834 976.5 318.346 976.5C304.858 976.5 293.908 976.271 293.908 976.004C293.908 975.737 304.858 975.508 318.346 975.508C331.834 975.508 342.785 975.737 342.785 976.004Z" fill="#263238"/>
<path d="M323.822 972.988C323.574 972.854 323.822 971.996 324.413 971.08C325.004 970.164 325.806 969.783 325.996 969.974C326.187 970.164 325.787 970.889 325.214 971.672C324.642 972.454 324.07 973.121 323.822 972.988Z" fill="#263238"/>
<path d="M325.691 974.058C325.424 974.058 325.557 972.99 326.13 971.979C326.702 970.967 327.465 970.357 327.675 970.51C327.885 970.662 327.541 971.521 327.007 972.417C326.473 973.314 325.939 974.153 325.691 974.058Z" fill="#263238"/>
<path d="M302.721 975.928C302.607 975.928 302.168 975.584 301.539 974.859C300.77 973.928 299.914 973.072 298.982 972.303C298.066 971.571 296.974 971.091 295.815 970.91C294.919 970.796 294.346 970.91 294.289 970.796C294.232 970.681 294.785 970.281 295.834 970.204C297.219 970.175 298.57 970.634 299.65 971.502C300.662 972.326 301.515 973.328 302.168 974.459C302.607 975.298 302.836 975.851 302.721 975.928Z" fill="#263238"/>
<path d="M323.917 969.916C324.05 970.145 323.554 970.717 322.715 971.023C321.875 971.328 321.131 971.213 321.093 971.023C321.055 970.832 321.646 970.431 322.371 970.164C323.096 969.897 323.764 969.687 323.917 969.916Z" fill="#263238"/>
<path d="M323.459 968.334C323.459 968.62 322.696 968.849 321.704 968.868C320.712 968.887 319.93 968.658 319.949 968.391C319.968 968.124 320.75 967.876 321.704 967.857C322.658 967.838 323.421 968.066 323.459 968.334Z" fill="#263238"/>
<path d="M395.325 969.65V953.339L366.079 953.129L365.831 977.548L367.643 977.682C375.713 978.197 408.717 979.208 414.116 977.529C420.144 975.66 395.325 969.65 395.325 969.65Z" fill="#FFBB15"/>
<path d="M414.803 976.041C414.803 976.308 403.871 976.537 390.364 976.537C376.857 976.537 365.945 976.308 365.945 976.041C365.945 975.774 376.876 975.545 390.364 975.545C403.852 975.545 414.803 975.774 414.803 976.041Z" fill="#263238"/>
<path d="M395.839 972.988C395.61 972.854 395.839 971.996 396.431 971.08C397.022 970.164 397.823 969.783 398.014 969.974C398.205 970.164 397.804 970.889 397.232 971.672C396.66 972.454 396.087 973.121 395.839 972.988Z" fill="#263238"/>
<path d="M397.709 974.058C397.461 974.058 397.575 972.99 398.167 971.979C398.758 970.967 399.502 970.357 399.712 970.51C399.922 970.662 399.559 971.521 399.025 972.417C398.491 973.314 397.976 974.153 397.709 974.058Z" fill="#263238"/>
<path d="M374.74 975.928C374.625 975.928 374.205 975.584 373.557 974.859C372.788 973.928 371.932 973.072 371 972.303C370.084 971.571 368.992 971.091 367.833 970.91C366.956 970.796 366.364 970.91 366.307 970.796C366.25 970.681 366.803 970.281 367.853 970.204C369.237 970.175 370.588 970.634 371.668 971.502C372.685 972.321 373.539 973.324 374.186 974.459C374.625 975.298 374.854 975.851 374.74 975.928Z" fill="#263238"/>
<path d="M395.935 969.916C396.068 970.145 395.572 970.717 394.733 971.023C393.893 971.328 393.149 971.213 393.111 971.023C393.073 970.832 393.664 970.431 394.389 970.164C395.114 969.897 395.782 969.687 395.935 969.916Z" fill="#263238"/>
<path d="M395.515 968.334C395.515 968.62 394.752 968.849 393.76 968.868C392.768 968.887 392.005 968.658 392.024 968.391C392.043 968.124 392.806 967.876 393.76 967.857C394.714 967.838 395.515 968.066 395.515 968.334Z" fill="#263238"/>
<path d="M503.074 485.269C502.311 484.487 500.423 484.869 500.423 484.869C500.612 483.77 500.612 482.648 500.423 481.549C500.079 480.481 497.675 480.691 497.675 480.691C497.565 479.791 497.565 478.881 497.675 477.982C497.695 477.782 497.652 477.582 497.553 477.408C497.454 477.234 497.303 477.094 497.122 477.009C495.985 476.545 494.763 476.324 493.536 476.36C492.067 475.311 498.019 466.974 500.232 464.303C502.445 461.632 502.044 459.553 500.079 459.553C498.725 459.553 491.781 467.565 489.644 470.255C487.507 472.945 481.841 480.424 481.65 474.452C481.46 468.481 479.056 463.979 477.549 463.216C476.042 462.453 474.439 464.246 475.259 465.906C475.98 467.791 476.43 469.77 476.595 471.781C476.802 473.384 476.731 475.011 476.385 476.589C475.752 479.526 474.891 482.409 473.809 485.212H473.657C473.657 485.212 432.029 525.142 429.015 527.984C426.325 530.54 372.221 524.951 361.366 523.806C357.677 523.266 353.953 523.011 350.225 523.043C345.513 523.253 344.673 523.921 339.98 523.978C328.128 524.109 316.303 525.149 304.61 527.087C299.316 527.988 294.37 530.325 290.312 533.844C286.255 537.363 283.242 541.928 281.603 547.043C270.671 581.192 245.908 662.023 241.54 707.428C238.238 713.415 235.258 719.573 232.611 725.876C229.54 734.232 230.284 734.518 231.314 734.709C234.099 735.224 237.266 720.229 238.449 723.854C239.632 727.479 232.44 741.729 235.359 742.149C239.174 742.683 242.207 726.887 242.57 725.628C242.932 724.369 244.821 724.77 244.478 725.952C243.924 727.631 238.564 745.431 242.303 746.003C244.363 746.308 244.592 742.55 244.592 742.55C244.592 742.55 248.408 725.514 250.144 725.857C251.88 726.2 250.029 736.254 249.152 739.612C248.274 742.97 249.495 744.667 251.288 743.847C252.509 743.275 255.428 733.068 256.229 729.749C257.031 726.429 259.034 717.234 261.724 722.557C264.414 727.879 268.496 730.97 270.175 731.046C270.553 731.002 270.91 730.847 271.199 730.599C271.488 730.351 271.696 730.022 271.797 729.655C271.897 729.287 271.886 728.898 271.763 728.538C271.641 728.177 271.413 727.861 271.11 727.631C269.666 726.221 268.427 724.616 267.428 722.862C266.538 721.496 265.893 719.985 265.52 718.398C264.751 715.233 264.304 711.999 264.185 708.744L263.88 706.837C268.153 685.679 280.458 623.582 298.219 583.92L305.507 598.915L308.674 610.018L289.253 657.96L372.088 656.872L359.725 609.293L374.739 559.691C390.975 560.054 432.659 560.664 439.603 557.516C448.341 553.701 493.536 496.62 493.536 496.62C496.482 494.331 499.303 491.886 501.987 489.295C501.987 489.295 504.734 486.986 503.074 485.269Z" fill="#FFBE9D"/>
<path d="M285.609 622.533C288.013 614.33 300.356 573.771 300.356 573.771C300.356 573.771 306.423 606.832 304.82 610.819C303.346 614.233 301.604 617.524 299.612 620.663C285.609 641.973 287.44 652.637 287.44 652.637L372.049 650.062C372.24 638.234 365.239 610.724 363.789 606.336C362.339 601.948 367.166 587.583 367.166 587.583C367.166 587.583 376.704 577.872 376.361 572.874C376.18 568.384 375.625 563.917 374.701 559.52L426.211 561.427L424.589 526.515L350.606 519.113C348.031 526.382 324.737 522.814 324.737 522.814C299.593 523.654 298.028 528.271 287.574 536.398C277.119 544.525 259.816 614.272 259.816 614.272L285.609 622.533Z" fill="#FFBB15"/>
<path d="M335.63 614.274C334.164 614.536 332.671 614.612 331.185 614.502C328.419 614.502 324.623 614.312 320.445 613.892C316.267 613.472 312.489 612.881 309.799 612.347C308.316 612.156 306.862 611.784 305.469 611.24C306.96 611.241 308.449 611.381 309.914 611.66C312.623 612.003 316.381 612.48 320.54 612.9C324.699 613.32 328.476 613.606 331.204 613.797C332.691 613.815 334.173 613.975 335.63 614.274Z" fill="#263238"/>
<path d="M341.43 607.08C339.963 607.799 338.412 608.331 336.813 608.663C329.202 610.664 321.349 611.595 313.481 611.43C311.853 611.483 310.225 611.329 308.636 610.972C310.243 610.769 311.862 610.686 313.481 610.724C316.477 610.629 320.597 610.419 325.138 609.884C329.678 609.35 333.723 608.587 336.584 607.977C338.174 607.552 339.794 607.252 341.43 607.08Z" fill="#263238"/>
<path d="M369.894 574.99C369.855 576.445 369.657 577.891 369.302 579.302C368.806 581.954 368.043 585.578 367.07 589.546C366.097 593.515 365.162 597.177 364.323 599.658C363.985 601.077 363.486 602.453 362.835 603.759C362.941 602.309 363.21 600.876 363.636 599.486C364.361 596.51 365.182 593.076 366.097 589.317C367.013 585.559 367.891 582.125 368.615 579.149C368.874 577.717 369.303 576.32 369.894 574.99Z" fill="#263238"/>
<path d="M286.506 617.669C282.092 616.987 277.737 615.973 273.476 614.635C269.122 613.617 264.85 612.278 260.694 610.629C265.105 611.322 269.46 612.335 273.724 613.662C278.079 614.677 282.351 616.016 286.506 617.669Z" fill="#263238"/>
<path d="M375.617 559.101C374.898 559.225 374.162 559.225 373.442 559.101C371.45 558.897 369.493 558.428 367.624 557.708C364.503 556.536 361.662 554.723 359.283 552.387C356.904 550.051 355.041 547.243 353.812 544.144C352.453 540.735 351.873 537.066 352.114 533.404C352.199 530.383 353.102 527.442 354.727 524.895C355.87 523.179 357.578 521.917 359.554 521.327C360.082 521.182 360.628 521.111 361.175 521.118C361.557 521.118 361.748 521.118 361.748 521.118C361.748 521.118 360.947 521.118 359.668 521.633C357.856 522.302 356.318 523.558 355.3 525.2C352.705 529.283 351.98 536.742 354.746 543.705C356.034 546.989 358.049 549.937 360.641 552.329C362.765 554.285 365.211 555.86 367.872 556.983C370.368 557.97 372.966 558.68 375.617 559.101Z" fill="#263238"/>
<path d="M420.087 560.74C419.61 554.89 419.457 549.018 419.629 543.151C419.48 537.288 419.658 531.422 420.163 525.58C420.641 531.424 420.794 537.29 420.621 543.151C420.781 549.019 420.603 554.892 420.087 560.74Z" fill="#263238"/>
<path d="M350.11 521.251C350.32 516.996 350.759 512.189 350.759 512.189C350.759 512.189 361.29 511.025 361.919 500.151C362.549 489.277 361.919 464.19 361.919 464.19L342.842 454.422L321.666 471.077L324.928 525.448L344.349 526.688C345.833 526.729 347.273 526.18 348.354 525.16C349.434 524.141 350.065 522.735 350.11 521.251Z" fill="#FFBE9D"/>
<path d="M351.999 491.545C351.999 491.545 351.999 491.755 351.827 492.003C351.685 492.183 351.502 492.326 351.292 492.419C351.083 492.512 350.854 492.552 350.625 492.537C349.404 492.537 348.222 491.125 347.802 489.485C347.602 488.69 347.602 487.857 347.802 487.062C347.841 486.715 347.966 486.383 348.166 486.096C348.366 485.81 348.634 485.578 348.947 485.421C349.203 485.315 349.491 485.315 349.748 485.421C349.938 485.516 350.092 485.67 350.187 485.86C350.32 486.184 350.187 486.394 350.187 486.375C350.187 486.356 350.187 486.184 349.996 485.994C349.896 485.857 349.75 485.762 349.584 485.727C349.419 485.692 349.246 485.719 349.099 485.803C348.865 485.944 348.671 486.143 348.534 486.38C348.397 486.616 348.323 486.884 348.317 487.157C348.156 487.867 348.156 488.603 348.317 489.313C348.699 490.801 349.729 492.003 350.645 492.118C350.824 492.142 351.006 492.129 351.18 492.08C351.354 492.03 351.516 491.946 351.656 491.831C351.885 491.679 351.961 491.526 351.999 491.545Z" fill="#EB996E"/>
<path d="M368.463 458.313C366.994 453.315 361.671 450.835 356.826 449.461C349.443 447.362 341.468 446.447 334.257 449.098C327.045 451.75 318.384 456.405 318.384 464.361C314.13 464.017 311.688 467.737 310.009 472.354C308.936 475.167 308.293 478.125 308.101 481.13C307.567 491.546 304.648 505.931 297.895 513.562C294.079 517.816 288.795 520.754 286.62 526.058C284.712 530.655 285.704 536.111 283.93 540.766C282.347 544.868 278.855 547.787 276.299 551.354C273.695 555.401 272.162 560.044 271.845 564.847C271.528 569.649 272.437 574.453 274.487 578.807C276.551 583.05 279.458 586.828 283.03 589.911C286.601 592.994 290.763 595.317 295.262 596.74C304.173 599.451 313.676 599.544 322.639 597.007C329.365 595.399 335.639 592.288 340.991 587.907C346.467 583.435 350.228 577.207 351.637 570.279C352.991 562.496 350.816 554.579 349.195 546.833C344.12 522.356 345.57 521.078 351.98 498.357C352.133 497.956 352.209 497.537 352.323 497.136C352.438 496.735 352.495 496.544 352.571 496.239C352.753 495.341 352.849 494.428 352.857 493.511C351.921 493.859 350.905 493.933 349.928 493.723C348.952 493.514 348.055 493.03 347.344 492.328C346.631 491.58 346.134 490.653 345.906 489.646C345.678 488.638 345.726 487.587 346.047 486.605C346.497 485.531 347.168 484.563 348.015 483.764C348.863 482.966 349.87 482.354 350.969 481.969C353.086 481.092 355.357 480.634 357.436 479.661C361.843 477.562 364.895 473.213 366.975 468.653C368.685 465.493 369.212 461.827 368.463 458.313Z" fill="#263238"/>
<path d="M352.762 492.061C353.165 492.656 353.498 493.296 353.754 493.968C354.326 495.17 355.089 496.868 355.929 498.833L356.081 499.196H355.681L353.773 499.367C352.457 499.367 351.35 499.615 350.053 499.596C349.94 499.571 349.835 499.517 349.748 499.441C349.662 499.364 349.596 499.266 349.557 499.157C349.5 498.984 349.5 498.797 349.557 498.623C349.601 498.366 349.658 498.111 349.728 497.86L350.072 496.506C350.244 495.602 350.513 494.719 350.873 493.873C350.838 494.794 350.703 495.709 350.472 496.601L350.205 497.956C350.11 498.413 349.938 499.119 350.205 499.062C351.159 499.062 352.514 498.852 353.773 498.776L355.681 498.604L355.433 499.024C354.612 497.116 353.926 495.323 353.525 494.083C353.173 493.449 352.916 492.768 352.762 492.061Z" fill="#FFBB15"/>
<path d="M287.441 652.638L372.05 650.062L408.869 793.793L402.097 958.662H357.36L362.835 797.303L330.117 697.241L335.154 965.053L289.94 965.72L285.189 713.991C284.98 706.99 282.69 691.213 283.549 684.269L287.441 652.638Z" fill="#263238"/>
<path d="M341.373 699.282C339.988 699.369 338.598 699.286 337.233 699.034C334.677 698.729 331.185 698.195 327.351 697.431C323.516 696.668 320.082 695.791 317.602 695.085C316.276 694.794 314.994 694.332 313.787 693.711C313.787 693.425 320.006 694.913 327.637 696.459C335.268 698.004 341.411 698.996 341.373 699.282Z" fill="#455A64"/>
<path d="M401.639 949.617C401.639 949.884 391.509 950.113 379.013 950.113C366.517 950.113 356.368 949.884 356.368 949.617C356.368 949.35 366.498 949.121 379.013 949.121C391.528 949.121 401.639 949.331 401.639 949.617Z" fill="#455A64"/>
<path d="M334.753 958.088C334.753 958.374 324.909 958.584 312.776 958.584C300.642 958.584 290.817 958.374 290.817 958.088C290.817 957.802 300.661 957.592 312.776 957.592C324.89 957.592 334.753 957.821 334.753 958.088Z" fill="#455A64"/>
<path d="M328.915 957.401C328.648 957.401 327.465 898.89 326.263 826.72C325.061 754.549 324.356 696 324.604 696C324.852 696 326.073 754.492 327.255 826.701C328.438 898.909 329.201 957.401 328.915 957.401Z" fill="#455A64"/>
<path d="M395.63 949.618C395.609 949.357 395.609 949.096 395.63 948.835V946.546C395.63 944.486 395.782 941.529 395.897 937.77C396.164 930.139 396.545 919.055 397.022 905.472C398.052 878.153 399.502 840.494 401.086 798.924C401.086 798.523 401.086 798.142 401.086 797.798V797.932C391.07 757.869 382.008 721.507 375.426 695.199L367.795 664.083C366.918 660.439 366.25 657.597 365.773 655.613C365.544 654.678 365.392 653.953 365.258 653.4C365.184 653.152 365.139 652.895 365.125 652.637C365.224 652.877 365.3 653.126 365.353 653.381C365.506 653.915 365.697 654.64 365.964 655.556C366.479 657.463 367.223 660.363 368.177 663.988C370.085 671.352 372.775 681.959 376.132 695.027C382.771 721.316 391.929 757.583 402.078 797.703V797.836C402.078 798.18 402.078 798.58 402.078 798.962C400.38 840.532 398.835 878.172 397.709 905.491C397.118 919.093 396.622 930.101 396.278 937.77C396.087 941.586 395.935 944.486 395.839 946.546C395.839 947.519 395.725 948.282 395.706 948.835C395.709 949.098 395.683 949.36 395.63 949.618Z" fill="#455A64"/>
<path d="M381.035 794.441C377.822 795.498 374.511 796.233 371.153 796.635C367.032 797.341 363.522 797.837 361.938 797.914V797.532C362.453 797.685 362.72 797.78 362.72 797.856C362.72 797.933 362.396 797.856 361.862 797.856H360.717L361.862 797.513C363.35 797.074 366.86 796.349 370.981 795.605C374.286 794.888 377.654 794.498 381.035 794.441Z" fill="#455A64"/>
<path d="M380.253 799.916C377.277 800.052 374.295 799.918 371.344 799.516C368.364 799.455 365.395 799.129 362.473 798.543C368.435 798.056 374.436 798.52 380.253 799.916Z" fill="#455A64"/>
<path opacity="0.2" d="M287.078 655.671C288.08 656.958 289.342 658.019 290.782 658.785C292.221 659.551 293.807 660.005 295.434 660.116C298.841 660.52 302.288 660.456 305.678 659.926C327.522 657.503 350.663 655.271 372.049 650.062C344.368 651.608 315.122 651.093 287.44 652.638L287.154 655.004" fill="black"/>
<g opacity="0.2">
<path d="M315.599 694.684L331.204 755.236L330.117 697.24L315.599 694.684Z" fill="black"/>
</g>
</svg>
