<svg width="21" height="20" viewBox="0 0 21 20" fill="none" xmlns="http://www.w3.org/2000/svg">
<path d="M20.0713 7.56729C19.9544 7.1865 19.6278 6.92087 19.2451 6.89258L13.222 6.46636L10.9725 0.612082C10.8285 0.241397 10.4864 0 10.1037 0C9.72397 0 9.379 0.243417 9.23792 0.612082L6.98834 6.46636L0.965234 6.89258C0.585463 6.92187 0.258853 7.1865 0.139049 7.56729C0.0221245 7.94604 0.13615 8.36118 0.427984 8.61572L5.06331 12.661L3.58873 18.7819C3.495 19.1687 3.63705 19.5758 3.94626 19.8121C4.25548 20.0455 4.66811 20.0606 4.99279 19.8495L10.1065 16.4922L15.2203 19.8495C15.372 19.9505 15.545 20 15.717 20C15.9122 20 16.1016 19.9394 16.2668 19.8152C16.576 19.5798 16.7181 19.1748 16.6243 18.7849L15.1527 12.6641L19.7853 8.61875C20.0761 8.3622 20.1902 7.94604 20.0713 7.56729Z" fill="#FFBB15"/>
</svg>
